<?xml version="1.0" encoding="utf-8"?>
<!-- Generator: Adobe Illustrator 19.0.0, SVG Export Plug-In . SVG Version: 6.00 Build 0)  -->
<svg version="1.1" id="Layer_1" xmlns="http://www.w3.org/2000/svg" xmlns:xlink="http://www.w3.org/1999/xlink" x="0px" y="0px"
	 viewBox="0 0 145.9 145.7" style="enable-background:new 0 0 145.9 145.7;" xml:space="preserve">
<style type="text/css">
	.st0{fill:none;stroke:#FFFFFF;stroke-width:2;stroke-linecap:round;}
	.st1{fill:none;stroke:#FFFFFF;stroke-width:4;stroke-linecap:round;stroke-linejoin:round;}
	.st2{fill:none;stroke:#FFFFFF;stroke-width:2;stroke-linecap:round;stroke-linejoin:round;}
</style>
<title>Display+Search</title>
<desc>Created with Sketch.</desc>
<g id="Publisher">
	<g id="Display_x2B_Search" transform="translate(-1014.000000, -191.000000)">
		<g id="Dynamic-group" transform="translate(1149.000000, 188.000000)">
		</g>
		<g id="Group-4" transform="translate(1018.000000, 188.000000)">
			<path id="Oval-9" class="st0" d="M36.5,134.4c9.8,5.5,21.1,8.6,33.2,8.6c37.8,0,68.5-30.7,68.5-68.6c0-13.4-3.8-25.8-10.4-36.4
				 M106.2,16.3C95.6,9.6,83.1,5.7,69.6,5.7C31.8,5.7,1.1,36.5,1.1,74.4c0,13.2,3.7,25.6,10.2,36.1l0,0"/>
			<path id="Combined-Shape" class="st1" d="M84.6,44.8c-3.4-5-9.1-8.2-15.5-8.2c-10.4,0-18.8,8.5-18.8,18.9
				c0,6.6,3.4,12.4,8.6,15.8 M69.1,112.1c10.4,0,18.8-8.5,18.8-18.9c0-8.7-5.9-16-13.9-18.2 M51.5,100.1c2.7,7,9.6,12,17.5,12"/>
			<path id="Line" class="st0" d="M68.5,117.3v5.1"/>
			<path id="Line_1_" class="st0" d="M68.5,25.7v5.1"/>
			<path id="Page-1" class="st1" d="M0,137.9l3.1-3.1h9.4v-0.3l-0.1-7.5l99.1-99.3l16.4,1.4l1.1-16.3l5.3-1.4"/>
			<path id="Combined-Shape_1_" class="st2" d="M140.3,8.3l-9.5-2.8l-0.5-0.2l0.3-1.1l0.5,0.2l9.6,2.9l0-0.1l0.5,0.2l0.5,0.2l0,0.1
				l0.1,0l-0.2,0.5l-0.2,0.5l-0.1,0l-4.3,9.1l-0.2,0.5l-1-0.5l0.2-0.5L140.3,8.3z"/>
		</g>
	</g>
</g>
</svg>
