<?xml version="1.0" encoding="utf-8"?>
<!-- Generator: Adobe Illustrator 19.0.0, SVG Export Plug-In . SVG Version: 6.00 Build 0)  -->
<svg version="1.1" id="Layer_1" xmlns="http://www.w3.org/2000/svg" xmlns:xlink="http://www.w3.org/1999/xlink" x="0px" y="0px"
	 viewBox="-452 284.4 354.2 240.5" style="enable-background:new -452 284.4 354.2 240.5;" xml:space="preserve">
<style type="text/css">
	.st0{display:none;fill:none;stroke:#FFFFFF;stroke-miterlimit:10;enable-background:new    ;}
	.st1{font-family:'Raleway-Medium';}
	.st2{font-size:14px;}
	.st3{fill:none;stroke:#FFFFFF;stroke-miterlimit:10;}
	.st4{fill:none;stroke:#FFFFFF;stroke-width:5;stroke-miterlimit:10;}
	.st5{fill:#FFFFFF;}
	.st6{font-family:'Raleway-Thin';}
	.st7{font-size:242px;}
	.st8{fill:none;stroke:#FFFFFF;stroke-width:2;}
	.st9{fill:none;stroke:#FFFFFF;stroke-width:2;stroke-linecap:round;}
	.st10{opacity:0.5;fill:#FFFFFF;stroke:#FFFFFF;stroke-width:2;}
	.st11{font-family:'Nunito-Medium';}
	.st12{font-size:20px;}
</style>
<title>Display+Search</title>
<desc>Created with Sketch.</desc>
<g id="Advertiser">
	<g id="Display_x2B_Search" transform="translate(-858.000000, -156.000000)">
		<text transform="matrix(1 0 0 1 417.8419 539.2976)" class="st0 st1 st2">YOUR </text>
		<text transform="matrix(1 0 0 1 413.59 564.2976)" class="st0 st1 st2">BRAN</text>
		<text transform="matrix(1 0 0 1 413.59 564.2976)" class="st0 st1 st2">BRAN</text>
		<text transform="matrix(1 0 0 1 459.6395 564.2976)" class="st3 st1 st2"> </text>
		<text transform="matrix(1 0 0 1 459.6395 564.2976)" class="st3 st1 st2"> </text>
		<text transform="matrix(1 0 0 1 459.7519 564.2976)" class="st0 st1 st2">D</text>
		<text transform="matrix(1 0 0 1 459.7519 564.2976)" class="st0 st1 st2">D</text>
		<rect id="Rectangle-38" x="412.3" y="577.1" class="st4" width="65.9" height="2.4"/>
		<text transform="matrix(1 0 0 1 473.8573 645.7545)" class="st5 st6 st7">{</text>
		<g id="Group-5" transform="translate(1040.000000, 156.000000)">
			<path id="Rectangle-39" class="st8" d="M-489.9,297.1h31.4c3.6,0,6.6,2.7,6.6,6.1v48.3c0,3.3-3,6.1-6.6,6.1h-31.4
				c-3.6,0-6.6-2.7-6.6-6.1v-48.3C-496.5,299.9-493.6,297.1-489.9,297.1z"/>
			<rect id="Rectangle-40" x="-489.5" y="302.1" class="st8" width="30.5" height="46.9"/>
			<ellipse id="Oval-19" class="st3" cx="-474.3" cy="353.3" rx="1.3" ry="1.3"/>
		</g>
		<g id="Group" transform="translate(1023.000000, 261.000000)">
			<path id="Rectangle-41" class="st8" d="M-484.6,269.1h61.8c2.8,0,5,2,5,4.5V308c0,2.5-2.2,4.5-5,4.5h-61.8c-2.8,0-5-2-5-4.5
				v-34.4C-489.6,271.2-487.4,269.1-484.6,269.1z"/>
			<rect id="Rectangle-42" x="-483.7" y="275.6" class="st8" width="60.1" height="30.8"/>
			<path id="Rectangle-43" class="st8" d="M-488.8,318.4c0.8-1.2,2.7-2.1,4.4-2.1h62.3c1.7,0,3.5,1,4.2,2.3l7.1,13.7
				c0.6,1.2-0.2,2.3-1.8,2.3h-83.6c-1.7,0-2.4-1-1.6-2.1L-488.8,318.4z"/>
			<path id="Line_6_" class="st9" d="M-484.3,324h60.1"/>
			<path id="Line_7_" class="st9" d="M-487.3,327.3h67.1"/>
			<path id="Line_8_" class="st9" d="M-455.4,322.3v8.3"/>
			<path id="Line_9_" class="st9" d="M-442.5,322.3l3.5,8.3"/>
			<path id="Line_10_" class="st9" d="M-430.7,322.3l4.7,8.3"/>
			<path id="Line_11_" class="st9" d="M-466.1,322.3l-3.5,8.3"/>
			<path id="Line_12_" class="st9" d="M-477.8,322.3l-4.7,8.3"/>
		</g>
		<g id="Group-6" transform="translate(1034.000000, 361.000000)">
			<rect id="Rectangle-42_1_" x="-496.5" y="273.5" class="st8" width="60.1" height="29.5"/>
			<path id="Line_13_" class="st9" d="M-466.4,265.8l-10.7-11.2"/>
			<path id="Line_14_" class="st9" d="M-466.4,265.8l11.4-11.9"/>
			<ellipse id="Oval-20" class="st8" cx="-452.8" cy="252.8" rx="2.4" ry="2.5"/>
			<ellipse id="Oval-20_1_" class="st8" cx="-478.9" cy="252.8" rx="2.4" ry="2.5"/>
			<path id="Rectangle-41_1_" class="st8" d="M-497.4,266.2h61.9c2.8,0,5,2,5,4.5v34.1c0,2.5-2.2,4.5-5,4.5h-61.9c-2.8,0-5-2-5-4.5
				v-34.1C-502.4,268.2-500.1,266.2-497.4,266.2z"/>
		</g>
		<path class="st10" d="M737.1,559.7c4.7-3.3,7.8-8.9,7.8-15.2c0-10.2-7.9-18.4-17.7-18.4s-17.7,8.2-17.7,18.4
			c0,6.3,3.1,11.9,7.8,15.2c-5.4,3-9,8.3-11.4,14c-2.4-5.8-5.9-11.1-11.4-14c4.7-3.3,7.8-8.9,7.8-15.2c0-10.2-7.9-18.4-17.7-18.4
			s-17.7,8.2-17.7,18.4c0,6.3,3.1,11.9,7.8,15.2c-16,8.7-16,38.2-16,38.1h42.5h9.3h42.5C753.1,597.8,753.1,568.4,737.1,559.7z"/>
		<path class="st8" d="M737.1,559.7c4.7-3.3,7.8-8.9,7.8-15.2c0-10.2-7.9-18.4-17.7-18.4s-17.7,8.2-17.7,18.4
			c0,6.3,3.1,11.9,7.8,15.2c-5.4,3-9,8.3-11.4,14c-2.4-5.8-5.9-11.1-11.4-14c4.7-3.3,7.8-8.9,7.8-15.2c0-10.2-7.9-18.4-17.7-18.4
			s-17.7,8.2-17.7,18.4c0,6.3,3.1,11.9,7.8,15.2c-16,8.7-16,38.2-16,38.1h42.5h9.3h42.5C753.1,597.8,753.1,568.4,737.1,559.7z"/>
		<text transform="matrix(1 0 0 1 417.071 544.6499)" class="st5 st11 st12">YOUR</text>
		<text transform="matrix(1 0 0 1 417.071 544.6499)" class="st3 st11 st12">YOUR</text>
		<text transform="matrix(1 0 0 1 410.071 568.6499)" class="st5 st11 st12">BRAND</text>
		<text transform="matrix(1 0 0 1 410.071 568.6499)" class="st3 st11 st12">BRAND</text>
		<text transform="matrix(1 0 0 1 610.9979 645.7549)" class="st5 st6 st7">}</text>
	</g>
</g>
</svg>
