<?xml version="1.0" encoding="utf-8"?>
<!-- Generator: Adobe Illustrator 19.0.0, SVG Export Plug-In . SVG Version: 6.00 Build 0)  -->
<svg version="1.1" id="Layer_1" xmlns="http://www.w3.org/2000/svg" xmlns:xlink="http://www.w3.org/1999/xlink" x="0px" y="0px"
	 viewBox="-449 265 272.9 32" style="enable-background:new -449 265 272.9 32;" xml:space="preserve">
<style type="text/css">
	.st0{fill:#333;}
</style>
<title>logo</title>
<desc>Created with Sketch.</desc>
<g id="Page-1">
	<g id="Desktop-Copy-3" transform="translate(-458.000000, -575.000000)">
		<g id="Group" transform="translate(458.000000, 575.000000)">
			<path id="logo" class="st0" d="M-417,281c0,8.8-7.2,16-16,16s-16-7.2-16-16s7.2-16,16-16S-417,272.2-417,281z M-426.6,277.6
				L-426.6,277.6l-3.9,0.3l0,0c-3.6,0.3-2.3,3-1.4,2.3c0.4-0.3,0.8-0.5,1.1-0.5l0,0c0.2-0.1,0.5-0.1,0.7-0.1l-0.5,2.9
				c-0.5,0.7-1.1,1-2,1c-2,0.1-3-1.6-3.1-3.7c-0.3-3.8,2.1-8.4,4.8-8.6c1.6-0.1,1.8,1.2,1.8,1.6c0,0,0,0.1,0,0.1l0,0
				c0,0.2,0,0.3,0,0.4c0,0.2-0.1,0.4-0.2,0.6c-0.1,0.3-0.2,0.4-0.3,0.6c-0.2,0.3-0.2,0.7,1.2,0.7c1.4-0.1,1.6-1,1.6-1
				c0.1-0.3,0.1-0.7,0.1-1.2c-0.2-2.3-2.5-3-4.8-2.9c-5.4,0.4-8.3,5.2-8,9.7c0.2,3.3,1.7,6,5.7,5.7c0.2,0,1.6-0.2,2.9-1.1l-0.5,3.1
				c-1.8-1.5-4-0.9-4-0.9h0c-1.5,0.4-2.3,1.9-2.2,3.4c0.1,1.5,1.2,3,3.2,3l0,0c0,0,0.4,0,0.9,0c0,0,0,0,0,0s0.5,0,1.2-0.2
				c0,0,0,0,0.1,0c0,0,0.1,0,0.1,0c0.3-0.1,0.6-0.2,0.9-0.4c0,0,0,0,0,0c0.1,0,0.1-0.1,0.2-0.1c0.8-0.5,1.7-1.2,2.1-2.4c0,0,0,0,0,0
				c0.1-0.3,0.2-0.7,0.3-1.1l0,0c0.1-0.5,0.2-1,0.3-1.7c0,0,0,0,0,0c0-0.1,0-0.2,0-0.3l1.3-8.5L-426.6,277.6z M-433.7,291.8
				c-1,0.1-1.6-0.7-1.7-1.5c-0.1-0.9,0.5-1.8,1.6-1.9c0.3,0,0.5,0,0.8,0.1c0.7,0.3,1.1,0.6,1.4,0.9
				C-432,291.3-432.7,291.7-433.7,291.8z"/>
		</g>
	</g>
</g>
<g>
	<path class="st0" d="M-405.8,289.8l2.3-3.1c0.9,0.9,1.9,1.7,3.1,2.3c1.2,0.6,2.6,0.9,4.1,0.9c1.5,0,2.6-0.3,3.4-0.9
		c0.7-0.6,1.1-1.4,1.1-2.2c0-0.5-0.1-1-0.4-1.3s-0.7-0.7-1.2-0.9c-0.5-0.2-1.1-0.5-1.8-0.6c-0.7-0.2-1.4-0.4-2.1-0.6
		c-0.7-0.2-1.5-0.4-2.2-0.6c-0.7-0.2-1.4-0.5-2.1-0.8c-0.7-0.3-1.3-0.7-1.8-1.2s-0.9-1-1.2-1.7s-0.4-1.5-0.4-2.4
		c0-1.9,0.8-3.5,2.3-4.8s3.5-1.9,6-1.9c3.5,0,6.3,1.1,8.5,3.2l-2.2,3c-0.9-0.9-1.9-1.5-3-2c-1.1-0.4-2.3-0.7-3.6-0.7
		c-1.2,0-2.1,0.3-2.8,0.8s-1,1.2-1,2c0,0.5,0.1,0.9,0.4,1.2c0.3,0.3,0.7,0.6,1.2,0.8s1.1,0.4,1.8,0.6s1.4,0.4,2.1,0.6
		c0.7,0.2,1.5,0.4,2.2,0.6s1.4,0.5,2.1,0.9s1.3,0.8,1.8,1.2c0.5,0.5,0.9,1.1,1.2,1.8s0.4,1.5,0.4,2.4c0,0.8-0.1,1.5-0.3,2.2
		c-0.2,0.7-0.6,1.3-1,1.9c-0.5,0.6-1,1.1-1.7,1.5s-1.5,0.8-2.5,1c-1,0.2-2.1,0.4-3.2,0.4C-400.4,293.4-403.5,292.2-405.8,289.8z"/>
	<path class="st0" d="M-383.6,273.8v-3.5h17.7v3.5h-6.9V293h-4v-19.2H-383.6z"/>
	<path class="st0" d="M-362.6,270.3h4.6l6.2,9.7l6.2-9.7h4.6l-8.8,13.3v9.4h-4v-9.4L-362.6,270.3z"/>
	<path class="st0" d="M-336.6,293v-22.7h4v19.2h10v3.5H-336.6z"/>
	<path class="st0" d="M-316.8,293v-22.7h15.5v3.5h-11.6v5.8h11.3v3.5h-11.3v6.3h11.6v3.5H-316.8z"/>
	<path class="st0" d="M-284.8,281.7c0-1.7,0.3-3.4,0.9-4.8c0.6-1.5,1.5-2.7,2.5-3.7c1.1-1,2.3-1.8,3.8-2.3c1.5-0.6,3-0.8,4.6-0.8
		c3.9,0,6.9,1.6,9.1,4.7l-3.3,1.9c-0.7-0.9-1.5-1.6-2.5-2.2c-1-0.6-2.1-0.9-3.4-0.9c-2.2,0-4.1,0.8-5.6,2.3
		c-1.5,1.5-2.2,3.5-2.2,5.9c0,2.4,0.7,4.3,2.2,5.9s3.3,2.3,5.6,2.3c1.1,0,2.1-0.2,3.1-0.6c1-0.4,1.7-0.9,2.3-1.4v-3.5h-6.8v-3.5
		h10.7v8.5c-1.2,1.3-2.5,2.3-4.1,3c-1.6,0.7-3.3,1.1-5.2,1.1c-2.2,0-4.2-0.5-6-1.4s-3.2-2.3-4.3-4.2
		C-284.2,286-284.8,284-284.8,281.7z"/>
	<path class="st0" d="M-257.1,284v-13.7h4.1v13.6c0,1.8,0.5,3.3,1.5,4.4c1,1.1,2.4,1.6,4.3,1.6s3.3-0.5,4.3-1.6
		c1-1.1,1.5-2.5,1.5-4.4v-13.6h4.1V284c0,2.9-0.8,5.2-2.5,6.9c-1.7,1.7-4.1,2.5-7.3,2.5c-3.2,0-5.7-0.8-7.3-2.5
		S-257.1,286.9-257.1,284z"/>
	<path class="st0" d="M-230.3,293v-22.7h4V293H-230.3z"/>
	<path class="st0" d="M-219.2,293v-22.7h8.4c2.3,0,4.4,0.5,6.2,1.4s3.2,2.3,4.2,4c1,1.7,1.5,3.7,1.5,5.9c0,3.4-1.1,6.1-3.3,8.2
		c-2.2,2.1-5,3.2-8.6,3.2H-219.2z M-215.2,289.5h4.4c1.6,0,3-0.4,4.2-1.1s2.1-1.7,2.7-2.8c0.6-1.2,0.9-2.5,0.9-3.9
		c0-1.5-0.3-2.8-0.9-4c-0.6-1.2-1.5-2.1-2.7-2.8c-1.2-0.7-2.6-1.1-4.2-1.1h-4.5V289.5z"/>
	<path class="st0" d="M-192.8,293v-22.7h15.5v3.5h-11.6v5.8h11.3v3.5h-11.3v6.3h11.6v3.5H-192.8z"/>
</g>
</svg>
