<?xml version="1.0" encoding="utf-8"?>
<!-- Generator: Adobe Illustrator 19.0.0, SVG Export Plug-In . SVG Version: 6.00 Build 0)  -->
<svg version="1.1" id="Layer_1" xmlns="http://www.w3.org/2000/svg" xmlns:xlink="http://www.w3.org/1999/xlink" x="0px" y="0px"
	 viewBox="5 132.4 217.5 25.6" style="enable-background:new 5 132.4 217.5 25.6;" xml:space="preserve">
<style type="text/css">
	.st0{fill:#231F20;}
</style>
<g id="XMLID_28_">
	<g id="XMLID_29_">
		<path id="XMLID_104_" class="st0" d="M16.3,148.4c-1.7,4.7-4.5,6.6-6.8,6.6c-2,0-3.8-1.5-3.8-4.9c0-7,6-13.7,9.9-13.7
			c1.7,0,2.6,1.3,2.6,2.5c0,1.1-0.7,1.5-1.2,1.5c-0.6,0-1.2-0.5-1.3-1.5c0-0.5-0.1-1.5-0.9-1.5c-3.1,0-6.6,9.7-6.6,13.6
			c0,1.8,1.2,2.7,2.1,2.7c2.1,0,4.2-2.9,5.1-5.4C15.5,148.4,16.3,148.4,16.3,148.4z"/>
		<path id="XMLID_101_" class="st0" d="M29.1,136.5c2.1,0,4.4,1.7,4.4,6c0,5.8-3.7,12.5-8.8,12.5c-4.4,0-4.4-5.3-4.4-6.2
			C20.3,142.9,24.6,136.5,29.1,136.5z M24.8,154.1c4.5,0,6.5-11.7,6.5-13.6c0-2.2-1.1-3-2.2-3c-4.2,0-6.5,10.6-6.5,13.8
			C22.5,152.3,23.1,154.1,24.8,154.1z"/>
		<path id="XMLID_99_" class="st0" d="M36.9,142.2c0.9-2.4,2.8-5.8,4.9-5.8c0.8,0,1.7,0.7,1.7,2.9c0,1.8-0.6,4-0.9,5.2l0.1,0.1
			c0.3-0.7,1.7-3.9,2-4.5c0.8-1.5,2-3.7,3.7-3.7c1,0,1.7,0.7,1.7,1.6s-0.6,1.5-1.2,1.5c-0.6,0-0.9-0.4-1.2-0.7
			c-0.1-0.1-0.3-0.3-0.5-0.3c-1.5,0-4.5,8.2-6,12.2c-0.4,0.9-0.7,1.8-0.8,2.4l-0.5,1.6h-2.5l3.4-11.1c0.7-2.3,1-3.2,1-4.4
			c0-0.4-0.1-1.2-0.7-1.2c-0.9,0-2.5,2.5-3.3,4.3H36.9z"/>
		<path id="XMLID_97_" class="st0" d="M60.4,148.4c-1.7,4.7-4.5,6.6-6.8,6.6c-2,0-3.8-1.5-3.8-4.9c0-7,6-13.7,9.9-13.7
			c1.7,0,2.6,1.3,2.6,2.5c0,1.1-0.7,1.5-1.2,1.5c-0.6,0-1.2-0.5-1.3-1.5c0-0.5-0.1-1.5-0.9-1.5c-3.1,0-6.6,9.7-6.6,13.6
			c0,1.8,1.2,2.7,2.1,2.7c2.1,0,4.2-2.9,5.1-5.4C59.6,148.4,60.4,148.4,60.4,148.4z"/>
		<path id="XMLID_94_" class="st0" d="M73.3,136.5c2.1,0,4.4,1.7,4.4,6c0,5.8-3.7,12.5-8.8,12.5c-4.4,0-4.4-5.3-4.4-6.1
			C64.4,142.9,68.7,136.5,73.3,136.5z M68.9,154.1c4.5,0,6.5-11.7,6.5-13.6c0-2.2-1.1-3-2.2-3c-4.2,0-6.5,10.6-6.5,13.8
			C66.6,152.3,67.2,154.1,68.9,154.1z"/>
		<path id="XMLID_92_" class="st0" d="M81,142.2c0.9-2.3,2.8-5.8,4.9-5.8c0.8,0,1.7,0.7,1.7,2.9c0,1.8-0.6,4-0.9,5.2l0.1,0.1
			c0.3-0.7,1.7-3.9,2-4.5c0.8-1.5,2-3.7,3.7-3.7c1,0,1.7,0.7,1.7,1.6s-0.6,1.5-1.2,1.5c-0.6,0-0.9-0.4-1.2-0.7
			c-0.1-0.1-0.3-0.3-0.5-0.3c-1.5,0-4.5,8.2-6,12.2c-0.4,0.9-0.7,1.8-0.8,2.4l-0.5,1.5h-2.5l3.4-11.2c0.7-2.3,1-3.2,1-4.4
			c0-0.4-0.1-1.2-0.7-1.2c-0.9,0-2.5,2.5-3.3,4.2H81L81,142.2L81,142.2z"/>
		<path id="XMLID_89_" class="st0" d="M109.6,136.8l-3.8,12.4c-0.3,0.8-0.8,2.7-0.8,3.3c0,0.4,0.1,0.9,0.8,0.9
			c1.3,0,2.8-2.5,3.1-3.1c0.1-0.1,0.1-0.2,0.1-0.3h0.9c-1.3,2.8-3.6,5-5.2,5c-1.7,0-2.1-1.5-2.1-2.5c0-0.4,0.1-1.1,0.4-2.2l-0.1-0.1
			c-0.8,1.5-3.5,4.9-6,4.9c-1.7,0-3.6-1.5-3.6-4.7c0-6.8,6.7-13.8,10.5-13.8c1.2,0,2.3,0.8,2.5,2.1h0.1l0.5-1.7h2.5V136.8
			L109.6,136.8z M97.7,153.8c0.5,0,1.5-0.4,2.5-1.3c1.1-0.9,2.3-2.4,3.3-4.7c1.2-2.8,2.4-6.8,2.4-8.2c0-1.3-0.7-2.1-1.7-2.1
			c-3.8,0-8.2,9.7-8.2,13.4C96,152,96,153.8,97.7,153.8z"/>
		<path id="XMLID_87_" class="st0" d="M129.7,150.4c-0.6,1.1-2.5,4.6-5.3,4.6c-0.6,0-2.3-0.3-2.3-2.3c0-0.9,0.3-1.7,1-3.8l2.3-6.4
			c0.6-1.7,0.9-2.7,0.9-3.4c0-0.4-0.1-1.3-1.2-1.3s-2.6,1.3-4.2,3.7c-1.6,2.4-3.1,5.8-4.4,9.8l-1,3.4h-2.6l3.7-11.9l0.3-0.9
			c0.1-0.5,0.3-0.9,0.4-1.1c0.1-0.4,0.4-1.3,0.4-1.7c0-0.1,0-0.7-0.6-0.7c-0.9,0-2.1,1.5-2.9,3.1h-1c1.9-3.4,3.6-4.8,5-4.8
			c1.5,0,1.7,1.4,1.7,2c0,1.2-0.7,3.6-1.4,5.5l0.1,0.1c3.2-6.8,5.9-7.6,7.3-7.6c1.3,0,2.9,0.9,2.9,3.1c0,0.9-0.2,1.6-0.9,3.6
			l-2.3,6.8c-0.1,0.1-0.1,0.6-0.3,0.9c-0.4,0.9-0.6,1.7-0.6,2.1c0,0.5,0.4,0.9,0.8,0.9s1.7-0.4,3.3-3.3
			C128.7,150.4,129.7,150.4,129.7,150.4z"/>
	</g>
</g>
<g>
	<path d="M142.8,154.8l-1.2-3.1h-4.3l-1,3.1h-1.9l4.2-11.2h2l4.2,11.2H142.8z M141.2,150.1l-1-3c-0.1-0.2-0.2-0.5-0.3-0.9
		c-0.1-0.4-0.2-0.7-0.3-0.9c-0.1,0.6-0.3,1.4-0.6,2.1l-1,2.9h3.4L141.2,150.1L141.2,150.1z"/>
	<path d="M155.6,149.1c0,1.9-0.5,3.2-1.6,4.3c-1,0.9-2.5,1.5-4.4,1.5h-3.1v-11.2h3.5c1.8,0,3.1,0.5,4.2,1.5S155.6,147.4,155.6,149.1
		z M153.7,149.1c0-2.7-1.3-4-3.8-4h-1.6v8.2h1.3C152.3,153.3,153.7,152,153.7,149.1z"/>
	<path d="M167.4,145.1c-1,0-1.9,0.4-2.5,1.2c-0.6,0.7-0.9,1.8-0.9,3c0,1.4,0.3,2.4,0.8,3.1c0.5,0.7,1.5,1,2.5,1c0.5,0,0.9,0,1.4-0.1
		c0.4-0.1,0.9-0.2,1.4-0.3v1.6c-0.8,0.3-1.9,0.5-3,0.5c-1.7,0-2.9-0.5-3.8-1.5c-0.8-0.9-1.4-2.4-1.4-4.3c0-1.2,0.2-2.2,0.6-3
		c0.4-0.8,1-1.6,1.9-2c0.8-0.4,1.8-0.7,2.8-0.7c1.2,0,2.2,0.2,3.1,0.7l-0.6,1.6c-0.4-0.2-0.7-0.3-1.2-0.5
		C168.1,145.2,167.9,145.1,167.4,145.1z"/>
	<path d="M179.2,154.8h-6.4v-11.2h6.4v1.6h-4.5v3h4.2v1.6h-4.2v3.6h4.5C179.2,153.3,179.2,154.8,179.2,154.8z"/>
	<path d="M191.2,154.8H189l-5.6-8.9h-0.1v0.5c0.1,0.9,0.1,1.8,0.1,2.6v5.9h-1.7v-11.2h2.2l5.4,8.9l0,0c0-0.1,0-0.5-0.1-1.3
		c0-0.7,0-1.4,0-1.8v-5.9h1.7v11.1L191.2,154.8L191.2,154.8z"/>
	<path d="M198.4,154.8h-1.8v-9.6h-3.2v-1.6h8.4v1.6h-3.2L198.4,154.8L198.4,154.8z"/>
	<path d="M210,154.8h-6.4v-11.2h6.4v1.6h-4.5v3h4.2v1.6h-4.2v3.6h4.5V154.8z"/>
	<path d="M214.5,150.4v4.5h-1.8v-11.2h3.1c1.5,0,2.5,0.3,3.2,0.8s1,1.4,1,2.4c0,1.4-0.7,2.4-2.2,2.9l3.1,4.9H219l-2.7-4.5h-1.8
		C214.5,150.3,214.5,150.4,214.5,150.4z M214.5,148.8h1.3c0.8,0,1.5-0.2,1.9-0.5c0.4-0.3,0.5-0.8,0.5-1.4c0-0.6-0.2-1-0.6-1.4
		c-0.4-0.3-1-0.4-1.9-0.4h-1.3L214.5,148.8L214.5,148.8L214.5,148.8z"/>
</g>
</svg>
