<?xml version="1.0" encoding="utf-8"?>
<!-- Generator: Adobe Illustrator 19.0.0, SVG Export Plug-In . SVG Version: 6.00 Build 0)  -->
<svg version="1.1" id="Layer_1" xmlns="http://www.w3.org/2000/svg" xmlns:xlink="http://www.w3.org/1999/xlink" x="0px" y="0px"
	 viewBox="-463 265 202.3 32" style="enable-background:new -463 265 202.3 32;" xml:space="preserve">
<style type="text/css">
	.st0{fill:#333;}
</style>
<desc>Created with Sketch.</desc>
<g id="Page-1">
	<g id="Desktop-Copy-3" transform="translate(-458.000000, -575.000000)">
		<g id="Group" transform="translate(458.000000, 575.000000)">
			<path id="logo" class="st0" d="M-431,281c0,8.8-7.2,16-16,16s-16-7.2-16-16s7.2-16,16-16S-431,272.2-431,281z M-440.6,277.6
				L-440.6,277.6l-3.9,0.3l0,0c-3.6,0.3-2.3,3-1.4,2.3c0.4-0.3,0.8-0.5,1.1-0.5l0,0c0.2-0.1,0.5-0.1,0.7-0.1l-0.5,2.9
				c-0.5,0.7-1.1,1-2,1c-2,0.1-3-1.6-3.1-3.7c-0.3-3.8,2.1-8.4,4.8-8.6c1.6-0.1,1.8,1.2,1.8,1.6c0,0,0,0.1,0,0.1l0,0
				c0,0.2,0,0.3,0,0.4c0,0.2-0.1,0.4-0.2,0.6c-0.1,0.3-0.2,0.4-0.3,0.6c-0.2,0.3-0.2,0.7,1.2,0.7c1.4-0.1,1.6-1,1.6-1
				c0.1-0.3,0.1-0.7,0.1-1.2c-0.2-2.3-2.5-3-4.8-2.9c-5.4,0.4-8.3,5.2-8,9.7c0.2,3.3,1.7,6,5.7,5.7c0.2,0,1.6-0.2,2.9-1.1l-0.5,3.1
				c-1.8-1.5-4-0.9-4-0.9h0c-1.5,0.4-2.3,1.9-2.2,3.4c0.1,1.5,1.2,3,3.2,3l0,0c0,0,0.4,0,0.9,0c0,0,0,0,0,0s0.5,0,1.2-0.2
				c0,0,0,0,0.1,0c0,0,0.1,0,0.1,0c0.3-0.1,0.6-0.2,0.9-0.4c0,0,0,0,0,0c0.1,0,0.1-0.1,0.2-0.1c0.8-0.5,1.7-1.2,2.1-2.4c0,0,0,0,0,0
				c0.1-0.3,0.2-0.7,0.3-1.1l0,0c0.1-0.5,0.2-1,0.3-1.7c0,0,0,0,0,0c0-0.1,0-0.2,0-0.3l1.3-8.5L-440.6,277.6z M-447.7,291.8
				c-1,0.1-1.6-0.7-1.7-1.5c-0.1-0.9,0.5-1.8,1.6-1.9c0.3,0,0.5,0,0.8,0.1c0.7,0.3,1.1,0.6,1.4,0.9
				C-446,291.3-446.7,291.7-447.7,291.8z"/>
		</g>
	</g>
</g>
<g>
	<path class="st0" d="M-418.3,292.8v-22.7h15.5v3.5h-11.6v5.8h11.3v3.5h-11.3v6.3h11.6v3.5H-418.3z"/>
	<path class="st0" d="M-398.7,292.8l8.5-11.6l-8-11.1h4.8l5.8,8.3l5.8-8.3h4.8l-8,11l8.5,11.7h-4.8l-6.4-8.9l-6.4,8.9H-398.7z"/>
	<path class="st0" d="M-371.6,292.8v-22.7h10c2.3,0,4.1,0.7,5.4,2c1.3,1.4,2,3,2,5.1c0,2-0.7,3.7-2,5c-1.3,1.4-3.1,2-5.4,2h-6v8.5
		H-371.6z M-367.6,280.8h5.5c1.1,0,2-0.3,2.8-1c0.7-0.7,1.1-1.5,1.1-2.6c0-1.1-0.4-2-1.1-2.6c-0.7-0.7-1.6-1-2.8-1h-5.5V280.8z"/>
	<path class="st0" d="M-348.9,292.8v-22.7h4v19.2h10v3.5H-348.9z"/>
	<path class="st0" d="M-329.6,287.5c-1-1.8-1.5-3.8-1.5-6c0-2.2,0.5-4.3,1.5-6c1-1.8,2.4-3.2,4.1-4.2c1.8-1,3.8-1.5,6-1.5
		c1.7,0,3.2,0.3,4.7,0.9s2.7,1.4,3.7,2.4s1.8,2.3,2.4,3.7c0.6,1.4,0.9,3,0.9,4.7s-0.3,3.2-0.9,4.7s-1.4,2.7-2.4,3.7
		c-1,1-2.2,1.8-3.7,2.4c-1.4,0.6-3,0.9-4.7,0.9c-2.2,0-4.2-0.5-6-1.5C-327.3,290.7-328.6,289.3-329.6,287.5z M-327,281.4
		c0,2.4,0.7,4.3,2.1,5.9s3.2,2.3,5.4,2.3c2.2,0,4.1-0.8,5.4-2.3s2.1-3.5,2.1-5.9c0-2.4-0.7-4.4-2.1-5.9s-3.2-2.3-5.4-2.3
		c-2.3,0-4.1,0.8-5.4,2.3C-326.3,277.1-327,279-327,281.4z"/>
	<path class="st0" d="M-301.8,292.8v-22.7h10c2.2,0,4,0.7,5.4,2c1.4,1.3,2.1,3,2.1,5.1c0,1-0.2,1.9-0.5,2.7c-0.3,0.8-0.7,1.5-1.2,2
		c-0.5,0.5-1.1,1-1.7,1.3c-0.6,0.3-1.3,0.6-2,0.7l5.6,8.9h-4.6l-5-8.5h-4v8.5H-301.8z M-297.8,280.8h5.5c1.1,0,2.1-0.3,2.8-1
		c0.7-0.7,1.1-1.5,1.1-2.6c0-1.1-0.4-1.9-1.1-2.6c-0.7-0.7-1.6-1-2.8-1h-5.5V280.8z"/>
	<path class="st0" d="M-278.1,292.8v-22.7h15.5v3.5h-11.6v5.8h11.3v3.5h-11.3v6.3h11.6v3.5H-278.1z"/>
</g>
</svg>
