<?xml version="1.0" encoding="utf-8"?>
<!-- Generator: Adobe Illustrator 19.0.0, SVG Export Plug-In . SVG Version: 6.00 Build 0)  -->
<svg version="1.1" id="Layer_1" xmlns="http://www.w3.org/2000/svg" xmlns:xlink="http://www.w3.org/1999/xlink" x="0px" y="0px"
	 viewBox="-24 129 220.6 32" style="enable-background:new -24 129 220.6 32;" xml:space="preserve">
<style type="text/css">
	.st0{fill:#333333;}
</style>
<title>logo</title>
<desc>Created with Sketch.</desc>
<g id="Tab-bar_x2F_OnSale" transform="translate(-38.000000, -12.000000)">
	<g id="Bottom-Nav-Copy" transform="translate(0.000000, 0.102586)">
		<g id="Group-4" transform="translate(38.511886, 12.694463)">
			<path id="Combined-Shape" class="st0" d="M-18.4,134.1L1.5,154c5.4-5.5,5.3-14.3-0.1-19.8C-4.1,128.8-12.9,128.7-18.4,134.1
				L-18.4,134.1z M-19.9,132.9c6.2-6.2,16.4-6.2,22.6,0c6.2,6.2,6.2,16.4,0,22.6c-6.2,6.2-16.4,6.2-22.6,0S-26.1,139.1-19.9,132.9
				L-19.9,132.9z"/>
		</g>
	</g>
</g>
<g>
	<path class="st0" d="M36.3,148.3c0,2.1-0.5,3.8-1.7,5.3c-1.6,2-4,3.1-6.5,3.1c-2.5,0-5-1.2-6.6-3.1c-1.2-1.5-1.7-3.1-1.7-5.3V134
		h3.4v13.5c0,2,0.2,2.9,0.7,3.8c0.8,1.4,2.4,2.3,4.2,2.3c1.7,0,3.3-0.9,4.1-2.3c0.5-0.9,0.7-1.9,0.7-3.8V134h3.4V148.3z"/>
	<path class="st0" d="M45.3,134h3.4v22.3h-3.4V134z"/>
	<path class="st0" d="M69,134h4.7c3.8,0,6.1,0.6,8.3,2.2c2.8,2,4.3,5.2,4.3,9c0,3.8-1.5,6.9-4.5,9c-2.2,1.6-4.2,2.1-8.2,2.1H69V134z
		 M73.9,153.1c2.7,0,4.4-0.4,6-1.6c1.9-1.4,3-3.7,3-6.4c0-2.6-1.1-5-3-6.4c-1.5-1.1-3.2-1.6-6-1.6h-1.5v16H73.9z"/>
	<path class="st0" d="M94.1,134h12.3v3.2h-8.9v5.4h8.7v3.2h-8.7v7.4h8.9v3.2H94.1V134z"/>
	<path class="st0" d="M123.7,138.9c-1-1.7-1.8-2.2-3.3-2.2c-1.8,0-3.2,1.2-3.2,2.8c0,0.7,0.3,1.4,1.1,1.9c0.6,0.4,0.6,0.4,3.6,1.6
		c3.6,1.5,5.2,3.5,5.2,6.6c0,4.1-3,7.1-7.2,7.1c-2.4,0-4.5-1.1-5.9-3c-0.7-1.1-1-1.9-1.3-3.6l3.4-0.8c0.2,1.3,0.3,1.9,0.6,2.4
		c0.6,1.1,1.8,1.7,3.2,1.7c2.1,0,3.6-1.6,3.6-3.7c0-1.3-0.5-2.2-1.5-2.9c-0.8-0.5-0.8-0.5-3.8-1.8c-3.1-1.3-4.6-3.1-4.6-5.7
		c0-3.3,2.9-5.9,6.7-5.9c2.7,0,4.5,1.1,6,3.7L123.7,138.9z"/>
	<path class="st0" d="M134.7,134h3.4v22.3h-3.4V134z"/>
	<path class="st0" d="M164.3,140.4c-1.9-2.5-4-3.7-6.7-3.7c-4.7,0-8.3,3.7-8.3,8.5c0,2.5,0.9,4.6,2.7,6.1c1.6,1.4,3.5,2.2,5.4,2.2
		c3.3,0,6.4-2.5,6.7-5.7h-5.6v-3.2h9.2v1c0,2.9-0.6,4.9-2,6.8c-1.9,2.6-5.1,4.2-8.5,4.2c-6.3,0-11.4-5.2-11.4-11.5
		c0-6.5,5.2-11.6,11.6-11.6c2.4,0,4.8,0.8,6.7,2.2c0.8,0.6,1.4,1.2,2.5,2.4L164.3,140.4z"/>
	<path class="st0" d="M175.4,132.5l16.3,17V134h3.4v23.7l-16.3-17v15.6h-3.4V132.5z"/>
</g>
</svg>
