<?xml version="1.0" encoding="utf-8"?>
<!-- Generator: Adobe Illustrator 19.0.0, SVG Export Plug-In . SVG Version: 6.00 Build 0)  -->
<svg version="1.1" id="Layer_1" xmlns="http://www.w3.org/2000/svg" xmlns:xlink="http://www.w3.org/1999/xlink" x="0px" y="0px"
	 viewBox="-24 129 202.4 32" style="enable-background:new -24 129 202.4 32;" xml:space="preserve">
<style type="text/css">
	.st0{fill:#333333;}
	.st1{enable-background:new    ;}
</style>
<title>logo</title>
<desc>Created with Sketch.</desc>
<g id="Tab-bar_x2F_OnSale" transform="translate(-38.000000, -12.000000)">
	<g id="Bottom-Nav-Copy" transform="translate(0.000000, 0.102586)">
		<g id="Group-4" transform="translate(38.511886, 12.694463)">
			<path id="Combined-Shape" class="st0" d="M-18.4,134.1L1.5,154c5.4-5.5,5.3-14.3-0.1-19.8C-4.1,128.8-12.9,128.7-18.4,134.1
				L-18.4,134.1z M-19.9,132.9c6.2-6.2,16.4-6.2,22.6,0c6.2,6.2,6.2,16.4,0,22.6c-6.2,6.2-16.4,6.2-22.6,0S-26.1,139.1-19.9,132.9
				L-19.9,132.9z"/>
		</g>
	</g>
</g>
<g class="st1">
	<path class="st0" d="M31.3,139.1c-1.1-1.8-1.9-2.3-3.5-2.3c-1.9,0-3.4,1.2-3.4,2.9c0,0.8,0.3,1.4,1.1,2c0.7,0.5,0.7,0.5,3.7,1.7
		c3.8,1.6,5.4,3.7,5.4,6.9c0,4.3-3.2,7.4-7.5,7.4c-2.5,0-4.7-1.1-6.1-3.1c-0.8-1.1-1.1-2-1.3-3.8l3.6-0.8c0.2,1.4,0.3,2,0.7,2.5
		c0.6,1.1,1.9,1.8,3.4,1.8c2.2,0,3.8-1.6,3.8-3.9c0-1.3-0.6-2.3-1.6-3.1c-0.8-0.5-0.8-0.5-3.9-1.9c-3.2-1.4-4.8-3.3-4.8-5.9
		c0-3.5,3-6.2,7-6.2c2.8,0,4.7,1.2,6.3,3.9L31.3,139.1z"/>
	<path class="st0" d="M43.7,133.9h12.8v3.3h-9.3v5.6h9v3.3h-9v7.7h9.3v3.3H43.7V133.9z"/>
	<path class="st0" d="M75.4,132.5l11.1,24.7h-3.8l-2.4-5.7h-9.9l-2.6,5.7h-3.8L75.4,132.5z M78.8,148.3l-3.5-7.9l-3.6,7.9H78.8z"/>
	<path class="st0" d="M94.2,133.9h4.1c3,0,4.7,0.4,6.1,1.4c1.7,1.2,2.8,3.3,2.8,5.5c0,3.2-2.1,5.9-5.2,6.5l7.2,9.9H105l-6.6-9.5
		h-0.6v9.5h-3.5V133.9z M98.9,144.6c1.6,0,2.7-0.3,3.5-0.8c0.9-0.6,1.5-1.8,1.5-3c0-1.1-0.5-2.2-1.4-2.8c-0.8-0.6-1.8-0.8-3.5-0.8
		h-1.3v7.4H98.9z"/>
	<path class="st0" d="M134.3,155.9c-2.1,1.2-4.1,1.7-6.3,1.7c-6.7,0-12-5.4-12-12c0-6.8,5.5-12.2,12.3-12.2c2.3,0,4,0.5,6.1,1.7v4.2
		c-2.2-1.8-4-2.5-6.3-2.5c-4.7,0-8.5,3.9-8.5,8.9c0,4.9,3.8,8.7,8.6,8.7c2.3,0,4-0.7,6.3-2.7V155.9z"/>
	<path class="st0" d="M143.9,133.9h3.5v9.1h10v-9.1h3.5v23.3h-3.5v-10.9h-10v10.9h-3.5V133.9z"/>
</g>
</svg>
