<?xml version="1.0" encoding="utf-8"?>
<!-- Generator: Adobe Illustrator 19.0.0, SVG Export Plug-In . SVG Version: 6.00 Build 0)  -->
<svg version="1.1" id="Layer_1" xmlns="http://www.w3.org/2000/svg" xmlns:xlink="http://www.w3.org/1999/xlink" x="0px" y="0px"
	 viewBox="-15 129 314.3 32" style="enable-background:new -15 129 314.3 32;" xml:space="preserve">
<style type="text/css">
	.st0{fill:#333333;}
</style>
<title>logo</title>
<desc>Created with Sketch.</desc>
<g id="Tab-bar_x2F_OnSale" transform="translate(-38.000000, -12.000000)">
	<g id="Bottom-Nav-Copy" transform="translate(0.000000, 0.102586)">
		<g id="Group-4" transform="translate(38.511886, 12.694463)">
			<path id="Combined-Shape" class="st0" d="M-8.6,134.1L11.3,154c5.4-5.5,5.3-14.3-0.1-19.8C5.7,128.8-3.1,128.7-8.6,134.1
				L-8.6,134.1z M-10.1,132.9c6.2-6.2,16.4-6.2,22.6,0s6.2,16.4,0,22.6c-6.2,6.2-16.4,6.2-22.6,0S-16.3,139.1-10.1,132.9
				L-10.1,132.9z"/>
		</g>
	</g>
</g>
<g>
	<path class="st0" d="M45.4,155.6c-2,1.2-4,1.7-6.2,1.7c-6.5,0-11.7-5.2-11.7-11.7c0-6.6,5.3-11.9,12-11.9c2.2,0,3.9,0.5,5.9,1.7v4
		c-2.1-1.8-3.9-2.5-6.2-2.5c-4.6,0-8.3,3.8-8.3,8.6c0,4.7,3.7,8.5,8.3,8.5c2.2,0,3.9-0.7,6.1-2.6V155.6z"/>
	<path class="st0" d="M51.2,134.2h4c2.9,0,4.6,0.4,6,1.3c1.7,1.1,2.7,3.2,2.7,5.3c0,3.2-2,5.7-5,6.4l7,9.7h-4.2l-6.5-9.3h-0.6v9.3
		h-3.4V134.2z M55.7,144.6c1.5,0,2.7-0.3,3.4-0.8c0.9-0.6,1.4-1.7,1.4-2.9c0-1.1-0.5-2.1-1.4-2.7c-0.8-0.5-1.8-0.8-3.4-0.8h-1.2v7.2
		H55.7z"/>
	<path class="st0" d="M70.7,134.2h12.5v3.2h-9.1v5.4H83v3.2h-8.8v7.5h9.1v3.2H70.7V134.2z"/>
	<path class="st0" d="M89.2,134.2H94c3.9,0,6.2,0.6,8.4,2.2c2.8,2.1,4.4,5.3,4.4,9.1c0,3.9-1.6,7-4.6,9.2c-2.3,1.7-4.2,2.2-8.3,2.2
		h-4.7V134.2z M94.2,153.6c2.8,0,4.5-0.4,6.1-1.6c2-1.5,3.1-3.8,3.1-6.5c0-2.7-1.2-5.1-3.1-6.5c-1.5-1.1-3.3-1.6-6.1-1.6h-1.5v16.2
		H94.2z"/>
	<path class="st0" d="M112.8,134.2h3.4v22.7h-3.4V134.2z"/>
	<path class="st0" d="M125.9,137.4h-5.2v-3.2h13.8v3.2h-5.2v19.4h-3.4V137.4z"/>
	<path class="st0" d="M149,134.2h4c2.9,0,4.6,0.4,6,1.3c1.7,1.1,2.7,3.2,2.7,5.3c0,3.2-2,5.7-5,6.4l7,9.7h-4.2l-6.5-9.3h-0.6v9.3
		H149V134.2z M153.6,144.6c1.5,0,2.7-0.3,3.4-0.8c0.9-0.6,1.4-1.7,1.4-2.9c0-1.1-0.5-2.1-1.4-2.7c-0.8-0.5-1.8-0.8-3.4-0.8h-1.2v7.2
		H153.6z"/>
	<path class="st0" d="M168.6,134.2h12.5v3.2H172v5.4h8.8v3.2H172v7.5h9.1v3.2h-12.5V134.2z"/>
	<path class="st0" d="M185,134.2h3.7l5.9,15.2l6.2-16.2l5.9,16.2l6.3-15.2h3.7l-10.1,24.1l-5.8-16.1l-6.1,16.1L185,134.2z"/>
	<path class="st0" d="M227.6,132.7l10.8,24.1h-3.7l-2.4-5.5h-9.7l-2.5,5.5h-3.7L227.6,132.7z M230.9,148.1l-3.4-7.7l-3.5,7.7H230.9z
		"/>
	<path class="st0" d="M242.8,134.2h4c2.9,0,4.6,0.4,6,1.3c1.7,1.1,2.7,3.2,2.7,5.3c0,3.2-2,5.7-5,6.4l7,9.7h-4.2l-6.5-9.3h-0.6v9.3
		h-3.4V134.2z M247.3,144.6c1.5,0,2.7-0.3,3.4-0.8c0.9-0.6,1.4-1.7,1.4-2.9c0-1.1-0.5-2.1-1.4-2.7c-0.8-0.5-1.8-0.8-3.4-0.8h-1.2
		v7.2H247.3z"/>
	<path class="st0" d="M262.3,134.2h4.8c3.9,0,6.2,0.6,8.4,2.2c2.8,2.1,4.4,5.3,4.4,9.1c0,3.9-1.6,7-4.6,9.2
		c-2.3,1.7-4.2,2.2-8.3,2.2h-4.7V134.2z M267.3,153.6c2.8,0,4.5-0.4,6.1-1.6c2-1.5,3.1-3.8,3.1-6.5c0-2.7-1.2-5.1-3.1-6.5
		c-1.5-1.1-3.3-1.6-6.1-1.6h-1.5v16.2H267.3z"/>
	<path class="st0" d="M295.5,139.2c-1.1-1.7-1.8-2.2-3.4-2.2c-1.9,0-3.3,1.2-3.3,2.8c0,0.7,0.3,1.4,1.1,1.9c0.6,0.4,0.6,0.4,3.6,1.7
		c3.7,1.5,5.3,3.6,5.3,6.7c0,4.1-3.1,7.2-7.3,7.2c-2.5,0-4.6-1.1-5.9-3c-0.7-1.1-1.1-2-1.3-3.7l3.5-0.8c0.2,1.4,0.3,1.9,0.6,2.5
		c0.6,1.1,1.9,1.8,3.3,1.8c2.1,0,3.7-1.6,3.7-3.8c0-1.3-0.5-2.3-1.6-3c-0.8-0.5-0.8-0.5-3.8-1.8c-3.2-1.3-4.7-3.2-4.7-5.7
		c0-3.4,3-6,6.8-6c2.7,0,4.6,1.2,6.1,3.8L295.5,139.2z"/>
</g>
</svg>
