<?xml version="1.0" encoding="UTF-8"?>
<svg width="61px" height="32px" viewBox="0 0 61 32" version="1.1" xmlns="http://www.w3.org/2000/svg" xmlns:xlink="http://www.w3.org/1999/xlink">
    <!-- Generator: Sketch 49.3 (51167) - http://www.bohemiancoding.com/sketch -->
    <title>logo</title>
    <desc>Created with Sketch.</desc>
    <defs></defs>
    <g id="Page-1" stroke="none" stroke-width="1" fill="none" fill-rule="evenodd">
        <g id="Desktop-Copy-3" transform="translate(-451.000000, -499.000000)" fill="#50505D">
            <g id="logo" transform="translate(451.000000, 499.000000)">
                <path d="M6.36786015,30.3029048 C5.01173213,30.3029048 4.33210456,29.2006087 4.33210456,28.0304294 C4.33210456,26.7945217 5.10658813,25.4907307 6.59405521,25.4907307 C6.97035207,25.4907307 7.29348788,25.5510714 7.65414914,25.7342486 C8.54329379,26.2148196 9.0634382,26.7352584 9.36676891,27.147946 C8.64440403,29.7598381 7.67603898,30.3029048 6.36786015,30.3029048 L6.36786015,30.3029048 Z M17.0553164,11.0272705 L17.0344689,11.0272705 L11.8976519,11.0272705 C7.06937756,11.0488207 8.61625994,15.0356197 9.83375227,14.1822292 C10.3601509,13.8104872 10.9042699,13.6186898 11.3462363,13.5227911 L11.3462363,13.5249462 C11.6266348,13.4689155 11.9581096,13.430125 12.3479573,13.42797 L11.476533,17.4072264 C10.7969055,18.3414303 9.92548115,18.6420565 8.72987866,18.6420565 C6.04680909,18.6420565 4.97941855,16.1034353 4.97941855,13.1294988 C4.97941855,7.81628102 8.59958196,1.56885927 12.1540758,1.56885927 C14.2242298,1.56885927 14.3847553,3.40601934 14.3847553,3.94046591 C14.3847553,3.99541908 14.3826705,4.05144977 14.378501,4.110713 C14.3513993,4.3305257 14.3149163,4.52986565 14.2711366,4.71088787 C14.2033823,4.96733602 14.110611,5.23779185 13.9959499,5.49316248 C13.8302125,5.83581169 13.6457124,6.08148471 13.4956106,6.28513471 C13.1891528,6.68920218 13.2193816,7.32277996 15.0122642,7.32277996 C16.8041043,7.32277996 17.2231385,6.08579476 17.2231385,6.08579476 C17.3815793,5.62569661 17.4545455,5.07831989 17.4545455,4.47598999 C17.4545455,1.23267514 14.4483401,0 11.4431771,0 C4.23516382,0 0,6.4790871 0,12.8601205 C0,17.4718771 1.6803062,21.4155756 6.94846223,21.4155756 C7.2413692,21.4155756 9.01757377,21.2474835 10.8938462,20.2119933 L9.97030321,24.4789457 C7.70939493,22.1730674 4.79074893,22.8605208 4.79074893,22.8605208 L4.79283368,22.8615984 C2.72893401,23.2732084 1.61776378,25.3301812 1.61776378,27.3623712 C1.61776378,29.5303278 2.87486631,31.6961294 5.57774098,31.94719 L5.57461386,31.949345 C5.57461386,31.949345 6.06140232,32.0193834 6.79836043,31.9924455 C6.78585195,31.9956781 6.77751296,31.9999881 6.77751296,31.9999881 C6.77751296,31.9999881 7.4581829,32.0053757 8.39110725,31.7866405 C8.41820896,31.7801754 8.4484378,31.7715553 8.47553951,31.7661678 C8.51410733,31.7575476 8.55163278,31.7489275 8.5902006,31.7370749 C8.99047205,31.6357887 9.40429436,31.4957119 9.81915904,31.3071471 C9.82228616,31.3060696 9.82749803,31.3028371 9.82749803,31.3028371 C9.90463368,31.2672791 9.97655745,31.2338762 10.0495236,31.1983183 C11.2117701,30.6272363 12.4063302,29.6510093 13.1120172,27.9765537 C13.1161867,27.9668561 13.117229,27.9593135 13.1213985,27.9506934 C13.3017291,27.5520135 13.4914411,27.061745 13.6738565,26.4497174 L13.6759413,26.4475624 C13.8781617,25.8139846 14.0918483,25.0274 14.2961535,24.0608706 C14.2971959,24.0576381 14.2992807,24.0522505 14.2992807,24.0490179 C14.3284671,23.9186388 14.3555688,23.7882597 14.3837129,23.6524931 L16.8718586,11.8655758 L17.0553164,11.0272705 Z" id="Fill-3"></path>
                <path d="M55.6356199,16.3563281 C55.2473574,19.4808487 53.9762109,21.8626899 52.7040317,21.8626899 C51.7178863,21.8626899 51.3791893,21.4655408 51.3791893,19.717874 C51.3791893,17.1253436 52.9115869,12.2815993 54.7517032,12.2815993 C55.403282,12.2815993 55.6882832,12.6798018 55.7388812,13.7890804 C55.2979555,14.0018765 55.0129543,14.4527513 55.0129543,15.1659342 C55.0129543,15.8274982 55.2194769,16.1972577 55.6356199,16.3563281 M59.8858549,12.774612 C59.5471579,12.774612 59.3365048,12.9979425 59.255961,13.1043405 C59.242537,13.1233026 59.2301457,13.1401577 59.2167217,13.1612266 C58.8749268,13.6342238 58.410251,14.1240762 57.8402486,14.2389018 C57.6843241,11.8855036 56.59595,10.6666667 54.5451806,10.6666667 C49.2003759,10.6666667 47.5151515,17.0189456 47.5151515,20.0644577 C47.5151515,23.0804734 49.2520065,24.2424242 51.6662557,24.2424242 C54.9355083,24.2424242 57.5294321,21.043109 57.8402486,15.9602324 C58.6085127,15.5325334 59.1898738,14.8319918 59.6452561,14.09774 C60.0882471,13.2939608 60.3288459,12.774612 59.8858549,12.774612" id="Fill-6"></path>
                <path d="M27.1515152,13.672241 C27.1515152,12.6424156 26.4973968,11.6363636 25.271603,11.6363636 C23.9633663,11.6363636 22.9284925,12.5051775 21.9749768,13.3188801 L22.3264433,11.6363636 L18.4039029,11.6363636 L15.5151515,25.2121212 L19.4387767,25.2121212 L21.4694724,15.6011375 L21.5410674,15.2672277 C21.6669011,14.9484465 22.0096895,14.4502833 22.9480185,13.9683293 C23.1476167,13.9002506 23.3634866,13.8635097 23.6086454,13.8635097 C24.4276493,13.8635097 23.6650536,15.6551683 25.1902449,15.6551683 C26.5245162,15.6551683 27.1515152,14.6231816 27.1515152,13.672241" id="Fill-9"></path>
                <path d="M34.3342459,16.3656213 C33.9434187,19.4860015 32.6662327,21.8646865 31.3921567,21.8646865 C30.4000568,21.8646865 30.0610634,21.4680636 30.0610634,19.7227127 C30.0610634,17.1336178 31.5974187,12.2962921 33.4489238,12.2962921 C34.0989202,12.2962921 34.3850431,12.6939669 34.4368769,13.8017756 C33.9952525,14.0142896 33.7091297,14.464567 33.7091297,15.1768049 C33.7091297,15.8374922 33.9164651,16.2067618 34.3342459,16.3656213 M48.1199763,12.6560931 C48.2298641,12.3909766 48.3034682,12.1984514 48.3387152,12.0795698 C48.3397519,12.0774657 48.9773082,10.6666667 47.5809043,10.6666667 C47.2056272,10.6666667 47.0646392,10.8981177 47.0262821,10.9801776 L47.0262821,10.9812296 C47.0231721,10.9843858 47.0210987,10.9864899 47.0210987,10.9906981 C47.0179887,10.9970104 47.0159154,11.0012186 47.0159154,11.0054268 C46.7235724,11.7155605 46.4032393,12.4299024 46.0538791,13.1537128 C45.7003723,13.8817314 45.3323519,14.610802 44.9508548,15.3409247 C44.5693577,16.0699953 44.1743838,16.7885454 43.765933,17.495523 C43.358519,18.2025006 42.9583617,18.8873851 42.5664978,19.5501766 C42.4897837,19.0851705 42.4275831,18.5475729 42.3778226,17.9342278 C42.3270254,17.3208827 42.2689715,16.6886007 42.1974408,16.0373817 C42.1279834,15.3840587 42.0367558,14.7444123 41.9279048,14.1121303 C41.821127,13.4819524 41.6666622,12.9201577 41.4717669,12.4235901 C41.2758349,11.9259705 41.0291058,11.5261915 40.7367629,11.221097 C40.4423467,10.9181066 40.072253,10.7666114 39.6264819,10.7666114 C39.3859728,10.7666114 39.1122901,10.8107975 38.8023237,10.8981177 C38.4923573,10.9864899 38.194831,11.1053715 37.9118182,11.2558146 C37.6277687,11.4041537 37.3882963,11.5819501 37.1913277,11.7849958 C36.9974691,11.9890935 36.8989848,12.2142322 36.8989848,12.4572557 C36.8989848,12.5887619 36.9653321,12.6992272 37.09388,12.7886514 C37.2245013,12.8780757 37.3654894,12.9201577 37.5189176,12.9201577 C37.7138129,12.9201577 37.8869379,12.9496151 38.0455495,13.0043217 C37.6992994,13.5229823 37.187181,14.1226508 36.5475513,14.2510009 C36.391013,11.9007213 35.2983555,10.6834995 33.2415884,10.6834995 C27.873675,10.6834995 26.1818182,17.0273607 26.1818182,20.0688372 C26.1818182,23.0808562 27.9255089,24.2412673 30.3502963,24.2412673 C33.6313789,24.2412673 36.2355115,21.0461916 36.5496246,15.9700505 C37.5282477,15.4282448 38.2041611,14.4456301 38.7007293,13.5145659 C38.8914779,13.7754743 39.0449061,14.0921413 39.1527205,14.4708793 C39.2843785,14.9285211 39.3642026,15.4429735 39.3984129,16.0121325 C39.4305499,16.5812916 39.4461001,17.1462424 39.4461001,17.7111932 C39.4461001,18.3403191 39.4305499,18.9820696 39.3984129,19.6332885 C39.3642026,20.2866115 39.3486524,20.9094251 39.3486524,21.5048854 C39.3486524,21.9488505 39.3673126,22.3570459 39.4067064,22.7336797 C39.4440267,23.1082095 39.5103741,23.4417094 39.6109317,23.727867 C39.6109317,23.727867 39.8338173,24.2707247 40.1655539,24.2412673 C40.4921071,24.2412673 40.8570174,24.0729393 41.2602848,23.7373354 C41.6614788,23.3985753 42.0865163,22.9556623 42.5322874,22.402284 C42.9801319,21.8489057 43.4341964,21.2155716 43.897591,20.5043859 C44.3599489,19.792148 44.80572,19.0630774 45.2369777,18.3161219 C45.6671986,17.5702185 46.070466,16.8316794 46.4519631,16.1015568 C46.8334602,15.3735382 47.1662335,14.7149549 47.450283,14.1226508 C47.7322591,13.5303467 47.957218,13.0421955 48.1199763,12.6560931" id="Fill-11"></path>
            </g>
        </g>
    </g>
</svg>