<?xml version="1.0" encoding="utf-8"?>
<!-- Generator: Adobe Illustrator 19.0.0, SVG Export Plug-In . SVG Version: 6.00 Build 0)  -->
<svg version="1.1" id="Layer_1" xmlns="http://www.w3.org/2000/svg" xmlns:xlink="http://www.w3.org/1999/xlink" x="0px" y="0px"
	 viewBox="0 0 84.4 68.5" style="enable-background:new 0 0 84.4 68.5;" xml:space="preserve">
<style type="text/css">
	.st0{fill:none;stroke:#DEDDDD;stroke-width:2;}
	.st1{fill:#DEDDDD;}
	.st2{fill:none;stroke:#DEDDDD;stroke-width:2;stroke-linecap:round;}
	.st3{fill:none;stroke:#585656;stroke-width:2;stroke-linecap:square;}
	.st4{fill:#585656;stroke:#585656;stroke-width:1;}
</style>
<title>Group 4</title>
<desc>Created with Sketch.</desc>
<g id="Advertiser">
	<g id="Partnership-_x26_-Brands" transform="translate(-348.000000, -328.000000)">
		<g id="Group-4" transform="translate(348.000000, 329.000000)">
			<circle id="Oval-15" class="st0" cx="36.5" cy="32.5" r="32.5"/>
			<circle id="Oval-16" class="st1" cx="36" cy="32" r="3"/>
			<path id="Line" class="st2" d="M36,32.5v-24"/>
			<path id="Line_1_" class="st2" d="M42,42l7,9"/>
			<path id="Line_2_" class="st3" d="M2.9,59.6l11-13"/>
			<path id="Line_3_" class="st3" d="M13.9,46l12,10"/>
			<path id="Line_4_" class="st3" d="M24.8,55.4l25.2-30"/>
			<path id="Line_5_" class="st3" d="M50,24l10.8,13"/>
			<path id="Line_6_" class="st3" d="M60.4,36.5l19-20"/>
			<ellipse id="Oval" class="st4" cx="4.1" cy="60.1" rx="2.9" ry="2.9"/>
			<ellipse id="Oval_1_" class="st4" cx="15.1" cy="47.1" rx="2.9" ry="2.9"/>
			<ellipse id="Oval_2_" class="st4" cx="26.1" cy="55.1" rx="2.9" ry="2.9"/>
			<ellipse id="Oval_3_" class="st4" cx="50.1" cy="25.1" rx="2.9" ry="2.9"/>
			<ellipse id="Oval_4_" class="st4" cx="61.1" cy="36.1" rx="2.9" ry="2.9"/>
			<ellipse id="Oval_5_" class="st4" cx="79.1" cy="15.1" rx="2.9" ry="2.9"/>
		</g>
	</g>
</g>
</svg>
