<?xml version="1.0" encoding="utf-8"?>
<!-- Generator: Adobe Illustrator 19.2.1, SVG Export Plug-In . SVG Version: 6.00 Build 0)  -->
<svg version="1.1" id="Layer_1" xmlns="http://www.w3.org/2000/svg" xmlns:xlink="http://www.w3.org/1999/xlink" x="0px" y="0px"
	 viewBox="0 0 100 100" style="enable-background:new 0 0 100 100;" xml:space="preserve">
<style type="text/css">
	.st0{fill:none;stroke:#585656;stroke-width:1.5195;stroke-miterlimit:10;}
	.st1{fill:none;stroke:#585656;stroke-miterlimit:10;}
	.st2{fill:none;stroke:#DEDDDD;stroke-width:3;stroke-linecap:round;stroke-linejoin:round;stroke-miterlimit:10;}
</style>
<g>
	<path class="st0" d="M48,33c-7.6,0.9-13.8,6.9-14.8,14.5c-0.8,5.9,1.5,11.3,5.5,14.9c1.4,1.2,2.3,2.7,2.9,4.4
		c0.2,0.6,0.1,1.2-0.2,1.7c-0.3,0.5-0.4,1-0.4,1.6v0.3c0,1,0.5,2,1.2,2.6V77c0,0.7,0.4,1.2,1,1.5c0.5,0.7,1.3,1.1,2.3,1.1H47
		c0.4,1.4,1.7,2.4,3.3,2.4s2.8-1,3.3-2.4h0.9c0.9,0,1.7-0.4,2.3-1.1c0.6-0.2,1-0.8,1-1.5v-3.9c0.7-0.6,1.2-1.5,1.2-2.6v-0.3
		c0-0.6-0.2-1.2-0.4-1.6c-0.3-0.5-0.4-1.1-0.2-1.7c0.6-1.7,1.6-3.3,2.9-4.5c3.4-3.1,5.6-7.6,5.6-12.6C66.9,39.8,58.2,31.9,48,33z"/>
	<g>
		<circle class="st1" cx="43.7" cy="53.9" r="2.3"/>
		<path class="st1" d="M47.8,54.9l-0.2-0.1c0,0-0.1,0-0.1,0c0-0.1,0-0.1,0-0.2c0-0.1,0-0.2,0-0.3c0-0.1,0-0.2,0-0.2c0,0,0-0.1,0-0.1
			s0-0.1,0-0.1c0-0.1,0-0.2,0-0.2c0-0.1,0-0.2,0-0.3c0-0.1,0-0.1,0-0.2c0,0,0.1,0,0.1,0l0.2-0.1c0.3-0.2,0.5-0.6,0.3-1l-0.5-0.8
			c-0.2-0.3-0.6-0.5-1-0.3L46.4,51c0,0-0.1,0.1-0.1,0.1c0,0-0.1-0.1-0.1-0.1c-0.1-0.1-0.1-0.1-0.2-0.2c-0.1,0-0.1-0.1-0.2-0.1
			c0,0-0.1-0.1-0.1-0.1c0,0-0.1,0-0.1-0.1c-0.1,0-0.1-0.1-0.2-0.1c-0.1,0-0.2-0.1-0.2-0.1c-0.1,0-0.1-0.1-0.2-0.1c0,0,0-0.1,0-0.1
			V50c0-0.4-0.3-0.7-0.7-0.7h-0.9c-0.4,0-0.7,0.3-0.7,0.7v0.2c0,0,0,0.1,0,0.1c-0.1,0-0.1,0-0.2,0.1c-0.1,0-0.2,0.1-0.2,0.1
			c-0.1,0-0.1,0.1-0.2,0.1c0,0-0.1,0-0.1,0.1c0,0-0.1,0.1-0.1,0.1c-0.1,0-0.1,0.1-0.2,0.1c-0.1,0.1-0.1,0.1-0.2,0.2
			c0,0-0.1,0.1-0.1,0.1c0,0-0.1-0.1-0.1-0.1l-0.2-0.1c-0.3-0.2-0.8-0.1-1,0.3L39.4,52c-0.2,0.3-0.1,0.8,0.3,1l0.2,0.1
			c0,0,0.1,0,0.1,0c0,0.1,0,0.1,0,0.2c0,0.1,0,0.2,0,0.3c0,0.1,0,0.2,0,0.2c0,0,0,0.1,0,0.1s0,0.1,0,0.1c0,0.1,0,0.2,0,0.2
			c0,0.1,0,0.2,0,0.3c0,0.1,0,0.1,0,0.2c0,0-0.1,0-0.1,0l-0.2,0.1c-0.3,0.2-0.5,0.6-0.3,1l0.5,0.8c0.2,0.3,0.6,0.5,1,0.3l0.2-0.1
			c0,0,0.1-0.1,0.1-0.1c0,0,0.1,0.1,0.1,0.1c0.1,0.1,0.1,0.1,0.2,0.2c0.1,0,0.1,0.1,0.2,0.1c0,0,0.1,0.1,0.1,0.1c0,0,0.1,0,0.1,0.1
			c0.1,0,0.1,0.1,0.2,0.1c0.1,0,0.2,0.1,0.2,0.1c0.1,0,0.1,0.1,0.2,0.1c0,0,0,0.1,0,0.1v0.2c0,0.4,0.3,0.7,0.7,0.7h0.9
			c0.4,0,0.7-0.3,0.7-0.7v-0.2c0,0,0-0.1,0-0.1c0.1,0,0.1,0,0.2-0.1c0.1,0,0.2-0.1,0.2-0.1c0.1,0,0.1-0.1,0.2-0.1c0,0,0.1,0,0.1-0.1
			c0,0,0.1-0.1,0.1-0.1c0.1,0,0.1-0.1,0.2-0.1c0.1-0.1,0.1-0.1,0.2-0.2c0,0,0.1-0.1,0.1-0.1c0,0,0.1,0.1,0.1,0.1l0.2,0.1
			c0.3,0.2,0.8,0.1,1-0.3l0.5-0.8C48.3,55.5,48.1,55.1,47.8,54.9z"/>
		<circle class="st1" cx="55.7" cy="47.6" r="2.6"/>
		<path class="st1" d="M60.2,48.7L60,48.6c0,0-0.1,0-0.1,0c0-0.1,0-0.1,0-0.2c0-0.1,0-0.2,0-0.3c0-0.1,0-0.2,0-0.3c0,0,0-0.1,0-0.1
			c0,0,0-0.1,0-0.1c0-0.1,0-0.2,0-0.3c0-0.1,0-0.2,0-0.3c0-0.1,0-0.1,0-0.2c0,0,0.1,0,0.1,0l0.2-0.1c0.4-0.2,0.5-0.7,0.3-1.1
			L60,44.5c-0.2-0.4-0.7-0.5-1.1-0.3l-0.2,0.1c0,0-0.1,0.1-0.1,0.1c-0.1,0-0.1-0.1-0.2-0.1c-0.1-0.1-0.2-0.1-0.2-0.2
			C58.1,44,58,44,57.9,44c0,0-0.1-0.1-0.1-0.1c0,0-0.1,0-0.1-0.1c-0.1,0-0.2-0.1-0.2-0.1c-0.1,0-0.2-0.1-0.3-0.1
			c-0.1,0-0.1-0.1-0.2-0.1c0-0.1,0-0.1,0-0.2v-0.2c0-0.4-0.4-0.8-0.8-0.8h-1.1c-0.4,0-0.8,0.4-0.8,0.8v0.2c0,0.1,0,0.1,0,0.2
			c-0.1,0-0.1,0.1-0.2,0.1c-0.1,0-0.2,0.1-0.3,0.1c-0.1,0-0.2,0.1-0.2,0.1c0,0-0.1,0-0.1,0.1c0,0-0.1,0.1-0.1,0.1
			c-0.1,0-0.2,0.1-0.2,0.1c-0.1,0.1-0.2,0.1-0.2,0.2c-0.1,0-0.1,0.1-0.2,0.1c0,0-0.1-0.1-0.1-0.1l-0.2-0.1c-0.4-0.2-0.9-0.1-1.1,0.3
			l-0.5,0.9c-0.2,0.4-0.1,0.9,0.3,1.1l0.2,0.1c0,0,0.1,0,0.1,0c0,0.1,0,0.1,0,0.2c0,0.1,0,0.2,0,0.3c0,0.1,0,0.2,0,0.3
			c0,0,0,0.1,0,0.1c0,0,0,0.1,0,0.1c0,0.1,0,0.2,0,0.3c0,0.1,0,0.2,0,0.3c0,0.1,0,0.1,0,0.2c0,0-0.1,0-0.1,0l-0.2,0.1
			c-0.4,0.2-0.5,0.7-0.3,1.1l0.5,0.9c0.2,0.4,0.7,0.5,1.1,0.3l0.2-0.1c0,0,0.1-0.1,0.1-0.1c0.1,0,0.1,0.1,0.2,0.1
			c0.1,0.1,0.2,0.1,0.2,0.2c0.1,0.1,0.2,0.1,0.2,0.1c0,0,0.1,0.1,0.1,0.1c0,0,0.1,0,0.1,0.1c0.1,0,0.2,0.1,0.2,0.1
			c0.1,0,0.2,0.1,0.3,0.1c0.1,0,0.1,0.1,0.2,0.1c0,0.1,0,0.1,0,0.2v0.2c0,0.4,0.4,0.8,0.8,0.8h1.1c0.4,0,0.8-0.4,0.8-0.8v-0.2
			c0-0.1,0-0.1,0-0.2c0.1,0,0.1-0.1,0.2-0.1c0.1,0,0.2-0.1,0.3-0.1c0.1,0,0.2-0.1,0.2-0.1c0,0,0.1,0,0.1-0.1c0,0,0.1-0.1,0.1-0.1
			c0.1,0,0.2-0.1,0.2-0.1c0.1-0.1,0.2-0.1,0.2-0.2c0.1,0,0.1-0.1,0.2-0.1c0,0,0.1,0.1,0.1,0.1l0.2,0.1c0.4,0.2,0.9,0.1,1.1-0.3
			l0.5-0.9C60.8,49.4,60.6,48.9,60.2,48.7z"/>
	</g>
	<line class="st2" x1="50" y1="18.7" x2="50" y2="23.6"/>
	<line class="st2" x1="28.2" y1="27.8" x2="31.8" y2="31.2"/>
	<line class="st2" x1="19.3" y1="49.5" x2="24.2" y2="49.4"/>
	<line class="st2" x1="28.3" y1="71.2" x2="31.7" y2="67.7"/>
	<line class="st2" x1="71.8" y1="71.2" x2="68.2" y2="67.8"/>
	<line class="st2" x1="80.7" y1="49.4" x2="75.8" y2="49.5"/>
	<line class="st2" x1="71.7" y1="27.7" x2="68.3" y2="31.2"/>
</g>
</svg>
