<?xml version="1.0" encoding="utf-8"?>
<!-- Generator: Adobe Illustrator 19.2.1, SVG Export Plug-In . SVG Version: 6.00 Build 0)  -->
<svg version="1.1" id="Layer_1" xmlns="http://www.w3.org/2000/svg" xmlns:xlink="http://www.w3.org/1999/xlink" x="0px" y="0px"
	 viewBox="0 0 100 100" style="enable-background:new 0 0 100 100;" xml:space="preserve">
<style type="text/css">
	.st0{fill:none;stroke:#DEDDDD;stroke-width:2;}
	.st1{fill:#575757;stroke:#585656;stroke-width:2;}
	.st2{fill:#585656;stroke:#585656;}
	.st3{fill:#585656;stroke:#585656;stroke-width:1;}
</style>
<title>PerformingAudience</title>
<desc>Created with Sketch.</desc>
<g id="Homepage">
	<g id="Partnership-_x26_-Brands" transform="translate(-110.000000, -327.000000)">
		<g id="PerformingAudience" transform="translate(111.000000, 327.000000)">
			<g id="Layer_1_1_">
				<g id="Group" transform="translate(2.066667, 0.000000)">
					<path id="Shape" class="st0" d="M37.7,48.6c0.5,0.2,1.1,0.2,1.5,0.3v6.7c0,3.7-2.6,6.7-6.1,7.5c-3.4,0.8-5.5,1.8-5.5,3.2v2.9
						c0,1.7,1.4,3.1,3.1,3.1h24.2c1.7,0,3.1-1.4,3.1-3.1v-2.9c0-1.2-2.1-2.5-5.5-3.2c-3.5-0.8-6.1-3.8-6.1-7.5v-6.7
						c2.9-0.3,5.8-1.2,8.9-2.5"/>
					<path id="Shape_1_" class="st0" d="M64.2,33.9l5.1-27c0.5-2.8-1.7-5.5-4.4-5.5C50.3,4,35.9,4,21.3,1.4c-2.9,0-5.1,2.6-4.4,5.5
						L22.5,37c0.8,3.8,3.2,7.2,6.7,8.9c0.5,0.3,0.9,0.5,1.5,0.6"/>
					<path id="Shape_2_" class="st0" d="M29.3,36.8c0.9,1.2,2.1,2.3,3.5,3.1"/>
					<path id="Shape_3_" class="st0" d="M23.6,11.2L27,29.3"/>
					<path id="Shape_4_" class="st0" d="M21.9,36.3c-5.8,4.1-13.5,2.1-18.2-4.8C-0.5,25.5,0.2,16.7,4.9,12c3.8-3.7,9.5-2.8,12.7,2.1
						L21.9,36.3L21.9,36.3z"/>
					<path id="Shape_5_" class="st0" d="M69.2,38.3c4.8,0.6,9.7-1.8,13-6.9c3.5-5.2,3.5-12.4,0.5-17.3"/>
					<path id="Shape_6_" class="st0" d="M76.8,9.7c-3.1-0.6-6.6,0.9-8.7,4.3"/>
				</g>
				<g id="Group_1_" transform="translate(0.000000, 1.000000)">
					<path id="Shape_7_" class="st1" d="M3.8,59.7L12,45.5"/>
					<path id="Shape_8_" class="st1" d="M28.3,57.9L12,45.5"/>
					<path id="Shape_9_" class="st1" d="M49.1,29.1L28.3,57.9"/>
					<path id="Shape_10_" class="st1" d="M64.2,43.5l-15-14.4"/>
					<path id="Shape_11_" class="st1" d="M85.3,5.1L64.2,43.5"/>
					<ellipse id="Oval" class="st2" cx="12" cy="45.5" rx="2.9" ry="2.9"/>
					<ellipse id="Oval_1_" class="st2" cx="64.2" cy="43.5" rx="2.9" ry="2.9"/>
					
						<ellipse id="Oval_2_" transform="matrix(0.7071 -0.7071 0.7071 0.7071 21.9706 61.9723)" class="st3" cx="85.8" cy="4.5" rx="2.9" ry="2.9"/>
					
						<ellipse id="Oval_3_" transform="matrix(0.866 -0.5 0.5 0.866 -7.9585 28.4492)" class="st3" cx="49.1" cy="29.1" rx="2.9" ry="2.9"/>
					
						<ellipse id="Oval_4_" transform="matrix(0.7071 -0.7071 0.7071 0.7071 -32.5934 36.9393)" class="st3" cx="28.3" cy="57.8" rx="2.9" ry="2.9"/>
					
						<ellipse id="Oval_5_" transform="matrix(0.9943 -0.1064 0.1064 0.9943 -6.4166 0.6936)" class="st3" cx="3.3" cy="60.5" rx="2.9" ry="2.9"/>
				</g>
			</g>
		</g>
	</g>
</g>
</svg>
