<?xml version="1.0" encoding="utf-8"?>
<!-- Generator: Adobe Illustrator 19.2.1, SVG Export Plug-In . SVG Version: 6.00 Build 0)  -->
<svg version="1.1" id="Layer_1" xmlns="http://www.w3.org/2000/svg" xmlns:xlink="http://www.w3.org/1999/xlink" x="0px" y="0px"
	 viewBox="0 0 100 100" style="enable-background:new 0 0 100 100;" xml:space="preserve">
<style type="text/css">
	.st0{fill:#DEDDDD;}
	.st1{font-family:'Raleway';}
	.st2{font-size:12px;}
	.st3{letter-spacing:1;}
	.st4{font-size:13.0631px;}
	.st5{fill:#FFFFFF;}
	.st6{fill:#585656;}
	.st7{fill:none;stroke:#585656;stroke-width:1.1914;stroke-linecap:round;stroke-linejoin:round;}
	.st8{fill:#585656;stroke:#585656;stroke-width:0.5957;}
</style>
<g id="Homepage">
	<g id="Partnership-_x26_-Brands" transform="translate(-828.000000, -679.000000)">
		<g id="QualityAssuranceIcon" transform="translate(828.000000, 675.000000)">
			<text transform="matrix(1 0 0 1 18.9969 75.5)" class="st0 st1 st2 st3">010110 00</text>
			<text transform="matrix(1 0 0 1 33.9969 88.5)" class="st0 st1 st2 st3">010010</text>
			<text transform="matrix(1 0 0 1 35.9969 19.5)" class="st0 st1 st4 st3">100101</text>
			<text transform="matrix(1 0 0 1 9.9969 33.5)" class="st0 st1 st2 st3">00101010</text>
			<text transform="matrix(1 0 0 1 33.9969 47.5)" class="st0 st1 st2 st3">01110111</text>
			<text transform="matrix(1 0 0 1 8.9969 61.5)" class="st0 st1 st2 st3">00100100 01</text>
			<g id="PerformingAudienceIcon" transform="translate(25.000000, 15.000000)">
				<g id="Layer_1_1_">
					<circle id="Oval-9" class="st5" cx="31" cy="23.5" r="16"/>
					<g id="Group">
						<path id="Shape" class="st6" d="M31.3,9.2L31.3,9.2c2.7,0,5.3,0.7,7.6,2.1c3.3,2,5.6,5.1,6.4,8.9s0.3,7.6-1.7,10.9
							c-2.6,4.3-7.1,6.9-12.1,6.9c-2.7,0-5.3-0.7-7.6-2.1c-3.3-2-5.6-5.1-6.4-8.9c-1-3.9-0.4-7.7,1.6-10.9
							C21.7,11.8,26.1,9.2,31.3,9.2L31.3,9.2z M31.3,7.5c-5.4,0-10.6,2.7-13.7,7.6c-4.7,7.6-2.3,17.4,5.1,22
							c2.6,1.6,5.6,2.4,8.4,2.4c5.4,0,10.6-2.7,13.7-7.6c4.7-7.6,2.3-17.4-5.1-22C37,8.4,34.1,7.5,31.3,7.5L31.3,7.5L31.3,7.5z"/>
						<path id="Shape_1_" class="st7" d="M36,15.8c3,1.9,4.6,5.1,4.3,8.6"/>
						<path id="Shape_2_" class="st8" d="M10.6,56.8L10.6,56.8c-0.9-0.6-1.1-1.7-0.6-2.6l11.3-18.1c0.6-0.9,1.1-0.3,2.1,0.1l0,0
							c0.9,0.6,1.6,1,1,1.9L13.3,56.2C12.7,57.1,11.6,57.4,10.6,56.8L10.6,56.8z"/>
						
							<ellipse id="Oval" transform="matrix(0.5251 -0.851 0.851 0.5251 -5.4034 46.7299)" class="st6" cx="39.2" cy="28.2" rx="0.7" ry="0.7"/>
					</g>
				</g>
			</g>
		</g>
	</g>
</g>
</svg>
