<?xml version="1.0" encoding="utf-8"?>
<!-- Generator: Adobe Illustrator 19.0.0, SVG Export Plug-In . SVG Version: 6.00 Build 0)  -->
<svg version="1.1" id="Layer_1" xmlns="http://www.w3.org/2000/svg" xmlns:xlink="http://www.w3.org/1999/xlink" x="0px" y="0px"
	 viewBox="0 0 82.3 87.2" style="enable-background:new 0 0 82.3 87.2;" xml:space="preserve">
<style type="text/css">
	.st0{fill:none;stroke:#585656;stroke-width:2;}
	.st1{fill:none;stroke:#DEDDDD;stroke-width:3;stroke-linecap:round;}
	.st2{fill:none;stroke:#585656;stroke-width:2;stroke-linecap:round;stroke-linejoin:round;}
	.st3{fill:#585656;stroke:#585656;}
</style>
<title>Page 1</title>
<desc>Created with Sketch.</desc>
<g id="Publisher">
	<g id="Partnership-_x26_-Brands" transform="translate(-335.000000, -328.000000)">
		<g id="Page-1" transform="translate(336.000000, 329.000000)">
			<g id="Group-3">
				<path id="Combined-Shape" class="st0" d="M31.1,4.9C13.3,8.7,0,24.6,0,43.5C0,65.3,17.7,83,39.5,83C61.3,83,79,65.3,79,43.5
					c0-19-13.3-34.8-31.2-38.6C47.1,2.1,43.7,0,39.5,0C35.3,0,31.9,2.1,31.1,4.9z"/>
				<path id="Stroke-3" class="st1" d="M39,9.4v5"/>
				<path id="Stroke-5" class="st1" d="M22.5,14l2.5,4.3"/>
				<path id="Stroke-7" class="st1" d="M10,26.5l4.3,2.5"/>
				<path id="Stroke-9" class="st1" d="M5.4,43h5"/>
				<path id="Stroke-11" class="st1" d="M10,60.5l4.3-2.5"/>
				<path id="Stroke-13" class="st1" d="M22.5,73l2.5-4.3"/>
				<path id="Stroke-15" class="st1" d="M39,77.6v-5"/>
				<path id="Stroke-17" class="st1" d="M56.5,73L54,68.7"/>
				<path id="Stroke-19" class="st1" d="M69,60.5L64.7,58"/>
				<path id="Stroke-21" class="st1" d="M73.6,43h-5"/>
				<path id="Stroke-23" class="st1" d="M69,26.5L64.7,29"/>
				<path id="Stroke-25" class="st1" d="M56.5,14L54,18.3"/>
				<path id="Line" class="st2" d="M34,19l5,22.5"/>
				<path id="Line_1_" class="st2" d="M56.2,27L39,42.2"/>
			</g>
			<circle id="Oval-16" class="st3" cx="40" cy="42" r="2"/>
		</g>
	</g>
</g>
</svg>
