<?xml version="1.0" encoding="utf-8"?>
<!-- Generator: Adobe Illustrator 19.0.0, SVG Export Plug-In . SVG Version: 6.00 Build 0)  -->
<svg version="1.1" id="Layer_1" xmlns="http://www.w3.org/2000/svg" xmlns:xlink="http://www.w3.org/1999/xlink" x="0px" y="0px"
	 viewBox="-15 129 186.8 32" style="enable-background:new -15 129 186.8 32;" xml:space="preserve">
<style type="text/css">
	.st0{fill:#333333;}
</style>
<title>logo</title>
<desc>Created with Sketch.</desc>
<g id="Tab-bar_x2F_OnSale" transform="translate(-38.000000, -12.000000)">
	<g id="Bottom-Nav-Copy" transform="translate(0.000000, 0.102586)">
		<g id="Group-4" transform="translate(38.511886, 12.694463)">
			<path id="Combined-Shape" class="st0" d="M-8.6,134.1L11.3,154c5.4-5.5,5.3-14.3-0.1-19.8C5.7,128.8-3.1,128.7-8.6,134.1
				L-8.6,134.1z M-10.1,132.9c6.2-6.2,16.4-6.2,22.6,0s6.2,16.4,0,22.6c-6.2,6.2-16.4,6.2-22.6,0S-16.3,139.1-10.1,132.9
				L-10.1,132.9z"/>
		</g>
	</g>
</g>
<path class="st0" d="M28.8,133.7h4c2.9,0,4.6,0.4,6,1.3c1.7,1.1,2.7,3.2,2.7,5.3c0,3.2-2,5.7-5,6.4l7,9.7h-4.2l-6.5-9.3h-0.6v9.3
	h-3.4V133.7z M33.3,144.1c1.5,0,2.7-0.3,3.4-0.8c0.9-0.6,1.4-1.7,1.4-2.9c0-1.1-0.5-2.1-1.4-2.7c-0.8-0.5-1.8-0.8-3.4-0.8h-1.2v7.2
	H33.3z"/>
<path class="st0" d="M49.2,133.7h12.5v3.2h-9.1v5.4h8.8v3.2h-8.8v7.5h9.1v3.2H49.2V133.7z"/>
<path class="st0" d="M71.8,137h-5.2v-3.2h13.8v3.2h-5.2v19.4h-3.4V137z"/>
<path class="st0" d="M102.6,148.3c0,2.2-0.5,3.8-1.7,5.3c-1.6,2-4.1,3.2-6.6,3.2c-2.6,0-5.1-1.2-6.7-3.2c-1.2-1.5-1.7-3.1-1.7-5.3
	v-14.6h3.4v13.7c0,2,0.2,3,0.7,3.9c0.8,1.4,2.4,2.3,4.2,2.3c1.8,0,3.4-0.9,4.2-2.3c0.5-1,0.7-1.9,0.7-3.9v-13.7h3.4V148.3z"/>
<path class="st0" d="M110.3,133.7h4c2.9,0,4.6,0.4,6,1.3c1.7,1.1,2.7,3.2,2.7,5.3c0,3.2-2,5.7-5,6.4l7,9.7h-4.2l-6.5-9.3h-0.6v9.3
	h-3.4V133.7z M114.9,144.1c1.5,0,2.7-0.3,3.4-0.8c0.9-0.6,1.4-1.7,1.4-2.9c0-1.1-0.5-2.1-1.4-2.7c-0.8-0.5-1.8-0.8-3.4-0.8h-1.2v7.2
	H114.9z"/>
<path class="st0" d="M130.7,132.2l16.5,17.3v-15.7h3.4v24.1l-16.5-17.3v15.9h-3.4V132.2z"/>
<path class="st0" d="M168.5,138.8c-1.1-1.7-1.8-2.2-3.4-2.2c-1.9,0-3.3,1.2-3.3,2.8c0,0.7,0.3,1.4,1.1,1.9c0.6,0.4,0.6,0.4,3.6,1.7
	c3.7,1.5,5.3,3.6,5.3,6.7c0,4.1-3.1,7.2-7.3,7.2c-2.5,0-4.6-1.1-5.9-3c-0.7-1.1-1.1-2-1.3-3.7l3.5-0.8c0.2,1.4,0.3,1.9,0.6,2.5
	c0.6,1.1,1.9,1.8,3.3,1.8c2.1,0,3.7-1.6,3.7-3.8c0-1.3-0.5-2.3-1.6-3c-0.8-0.5-0.8-0.5-3.8-1.8c-3.2-1.3-4.7-3.2-4.7-5.7
	c0-3.4,3-6,6.8-6c2.7,0,4.6,1.2,6.1,3.8L168.5,138.8z"/>
</svg>
