<?xml version="1.0" encoding="utf-8"?>
<!-- Generator: Adobe Illustrator 19.0.0, SVG Export Plug-In . SVG Version: 6.00 Build 0)  -->
<svg version="1.1" id="Layer_1" xmlns="http://www.w3.org/2000/svg" xmlns:xlink="http://www.w3.org/1999/xlink" x="0px" y="0px"
	 viewBox="0 0 586 69.9" style="enable-background:new 0 0 586 69.9;" xml:space="preserve">
<g>
	<path d="M34.5,56.8C28.8,64.4,22,69.9,13.9,69.9C5.1,69.9,0,64.5,0,55.9C0,34.8,23.3,0,45.3,0c7.1,0,9.4,3.7,9.4,6.6
		c0,3.7-1.8,6.2-5.5,6.2c-2.3,0-3.7-1.7-3.7-4c0-2.2,1.7-3.1,1.7-4.5c0-1.7-0.9-3.1-2.8-3.1C35,1.2,27.7,12,23.9,18.5
		C18.8,27.1,8.8,50.2,8.8,60.1c0,4.2,1.8,8.3,6.8,8.3c6.5,0,12.9-5.6,18.1-12.4L34.5,56.8z"/>
	<path d="M200.2,56.8c-5.7,7.6-12.5,13.1-20.6,13.1c-8.8,0-13.9-5.4-13.9-14C165.7,34.8,189,0,211,0c7.1,0,9.4,3.7,9.4,6.6
		c0,3.7-1.8,6.2-5.5,6.2c-2.3,0-3.7-1.7-3.7-4c0-2.2,1.7-3.1,1.7-4.5c0-1.7-0.9-3.1-2.8-3.1c-9.4,0-16.6,10.8-20.5,17.3
		c-5.1,8.6-15.1,31.7-15.1,41.6c0,4.2,1.8,8.3,6.8,8.3c6.5,0,12.9-5.6,18.1-12.4L200.2,56.8z"/>
	<path d="M69.6,69.9c-12.3,0-16.5-11.4-16.5-22.8C53.1,29.4,70.5,0,91.6,0c8.9,0,16,6.3,16,23.3C107.7,41.4,91.2,69.9,69.6,69.9z
		 M92.1,0.9c-14,0-32.2,41.7-32.2,57c0,6.2,2.3,10.9,8,10.9c13.7,0,32.8-37,32.8-56.4C100.7,6.5,99.3,0.9,92.1,0.9z"/>
	<path d="M125.2,12.1C132,4.7,138.7,0,143.7,0c3.2,0,3.9,2.6,3.9,6c0,2.9-3.2,12.3-6.9,20.2h0.3C149.9,9.9,159.4,0,168.6,0
		c4.9,0,8.5,2.3,8.5,7.4c0,2.8-2.2,5.9-5.1,5.9c-2.2,0-4.2-1.1-5.2-5.2c-0.8-2.8-2.9-3.7-4.6-3.7c-6.5,0-16.6,14.6-22.9,27.4
		c-6.6,13.4-13.2,28.8-16.6,36.5H113l13.7-30.8c6-13.6,11.9-27.1,11.9-29.6c0-1.4-0.8-2.5-2.3-2.5c-2.3,0-6.1,3.2-10.3,7.7
		L125.2,12.1z"/>
	<path d="M290.9,12.1C297.7,4.7,304.4,0,309.4,0c3.2,0,3.9,2.6,3.9,6c0,2.9-3.2,12.3-6.9,20.2h0.3C315.6,9.9,325.1,0,334.3,0
		c4.9,0,8.5,2.3,8.5,7.4c0,2.8-2.2,5.9-5.1,5.9c-2.2,0-4.2-1.1-5.2-5.2c-0.8-2.8-2.9-3.7-4.6-3.7c-6.5,0-16.6,14.6-22.9,27.4
		c-6.6,13.4-13.2,28.8-16.6,36.5h-9.5l13.7-30.8c6-13.6,11.9-27.1,11.9-29.6c0-1.4-0.8-2.5-2.3-2.5c-2.3,0-6.1,3.2-10.3,7.7
		L290.9,12.1z"/>
	<path d="M235.3,69.9c-12.3,0-16.5-11.4-16.5-22.8c0-17.7,17.4-47.1,38.5-47.1c8.9,0,16,6.3,16,23.3
		C273.4,41.4,256.9,69.9,235.3,69.9z M257.8,0.9c-14,0-32.2,41.7-32.2,57c0,6.2,2.3,10.9,8,10.9c13.7,0,32.8-37,32.8-56.4
		C266.4,6.5,265,0.9,257.8,0.9z"/>
	<path d="M390.9,55.6c-8,9.4-16,14.3-20.4,14.3c-2.2,0-3.9-1.2-3.9-3.4c0-4.5,1.7-10.9,7.4-23.7h-0.3
		c-11.2,16.9-21.7,27.1-33.1,27.1c-6.9,0-11.7-4.2-11.7-11.2c0-18.8,31.3-58.7,53.4-58.7c5.2,0,8,2.6,9.5,6.5l2.5-4.8h8.8
		c-2.5,5.5-15.7,33.1-15.7,33.1c-8,16.9-10.9,24.3-10.9,27c0,1.8,0.8,2.3,2,2.3c1.7,0,6.6-3.7,11.7-9.5L390.9,55.6z M381.4,1.2
		c-15.6,0-42.5,43.9-42.5,57.8c0,5.7,2.6,8.3,6.5,8.3c14.8,0,43-45.1,43-58.8C388.4,3.4,385.8,1.2,381.4,1.2z"/>
	<path d="M460,56.8c-8.6,10.1-14.2,13.1-19.6,13.1c-2.2,0-3.7-1.8-3.7-4.3c0-3.5,3.2-10.6,11.2-27.7c5.2-11.2,11.4-23.4,11.4-28.5
		c0-1.4-0.5-4.2-3.1-4.2c-7.9,0-23.4,18-35.4,41.3c-3.5,6.9-6.9,14.2-9.7,21.7h-9.1c2-5.2,7.5-17.9,12.9-30.2
		C422.7,20.3,426,11.9,426,8.2c0-1.2-0.6-2.6-1.8-2.6c-2,0-5.2,2.5-11.3,10.6l-0.9-0.6C420.5,3.7,426.6,0,431.5,0
		c2.6,0,3.9,2,3.9,5.4c0,4.5-4,15.7-12.3,33.7h0.3C433.4,21.6,450,0,462.6,0c4.5,0,6.8,2.2,6.8,6.6c0,4.8-4.5,14.3-12.2,30.5
		c-6.8,14.3-10.2,21.4-10.2,24.2c0,1.1,0.6,2.3,2.2,2.3c1.7,0,4.7-1.6,10-7.6L460,56.8z"/>
</g>
<g id="XMLID_93_">
	<path id="XMLID_94_" d="M479.8,64.7c0,0.8-0.3,1.4-0.8,2c-0.5,0.6-1.2,0.9-2.1,0.9s-1.6-0.3-2.1-0.9c-0.5-0.6-0.8-1.3-0.8-2
		c0-0.8,0.3-1.4,0.8-2s1.2-0.9,2.1-0.9s1.6,0.3,2.1,0.9S479.8,64,479.8,64.7z"/>
	<path id="XMLID_96_" d="M506.7,48c-0.6-0.9-1.5-1.7-2.6-2.4c-1.1-0.6-2.3-1-3.8-1c-1.5,0-2.8,0.2-4,0.7s-2.2,1.2-3,2.1
		c-0.8,0.9-1.5,2-1.9,3.2s-0.6,2.6-0.6,4c0,1.4,0.2,2.8,0.6,4s1.1,2.3,1.9,3.2c0.8,0.9,1.8,1.6,3,2.1c1.2,0.5,2.5,0.7,4,0.7
		c1.4,0,2.7-0.3,3.8-1c1.1-0.6,2-1.4,2.6-2.4l2.9,2.2c-1.3,1.5-2.7,2.6-4.3,3.3c-1.6,0.7-3.2,1.1-5,1.1c-2.1,0-3.9-0.3-5.6-0.9
		c-1.7-0.7-3.1-1.6-4.2-2.8c-1.2-1.2-2.1-2.6-2.7-4.2c-0.6-1.6-0.9-3.4-0.9-5.3s0.3-3.7,0.9-5.3c0.6-1.6,1.5-3.1,2.7-4.2
		c1.2-1.2,2.6-2.1,4.2-2.8c1.7-0.7,3.5-1,5.6-0.9c1.7,0,3.4,0.4,5,1.1c1.6,0.7,3,1.8,4.3,3.3L506.7,48z"/>
	<path id="XMLID_98_" d="M539.9,54.7c0,1.9-0.3,3.7-1,5.3s-1.6,3-2.8,4.2c-1.2,1.2-2.6,2.1-4.2,2.8c-1.6,0.7-3.4,1-5.4,1
		c-1.9,0-3.7-0.3-5.4-1c-1.6-0.7-3.1-1.6-4.2-2.8c-1.2-1.2-2.1-2.6-2.8-4.2s-1-3.4-1-5.3s0.3-3.7,1-5.3s1.6-3,2.8-4.2
		c1.2-1.2,2.6-2.1,4.2-2.8c1.6-0.7,3.4-1,5.4-1c2,0,3.8,0.3,5.4,1c1.6,0.7,3.1,1.6,4.2,2.8c1.2,1.2,2.1,2.6,2.8,4.2
		S539.9,52.8,539.9,54.7z M536,54.7c0-1.4-0.2-2.7-0.7-3.9c-0.5-1.2-1.1-2.3-1.9-3.2c-0.8-0.9-1.8-1.6-3-2.1c-1.2-0.5-2.5-0.8-4-0.8
		c-1.5,0-2.8,0.3-4,0.8c-1.2,0.5-2.2,1.2-3,2.1c-0.8,0.9-1.4,2-1.9,3.2c-0.5,1.2-0.7,2.5-0.7,3.9c0,1.4,0.2,2.7,0.7,3.9
		c0.4,1.2,1.1,2.3,1.9,3.2c0.8,0.9,1.8,1.6,3,2.1c1.2,0.5,2.5,0.8,4,0.8c1.5,0,2.8-0.3,4-0.8c1.2-0.5,2.2-1.2,3-2.1
		c0.8-0.9,1.5-2,1.9-3.2C535.7,57.4,536,56.1,536,54.7z"/>
	<path id="XMLID_101_" d="M546.3,47.6c0-0.9,0-1.9-0.1-2.8c-0.1-0.9-0.1-1.9-0.2-2.8h3.8v3.8h0.1c0.9-1.5,2.1-2.6,3.6-3.3
		c1.5-0.8,3.1-1.1,4.6-1.1c0.7,0,1.4,0.1,2.2,0.2c0.8,0.1,1.5,0.4,2.2,0.8s1.4,0.9,2,1.6c0.6,0.7,1.2,1.6,1.6,2.6
		c0.7-1.6,1.9-2.9,3.4-3.8c1.6-0.9,3.2-1.4,4.9-1.4c3.2,0,5.6,0.9,7.2,2.6c1.5,1.7,2.3,4.2,2.3,7.3v16h-3.6V52.6
		c0-2.6-0.5-4.5-1.3-5.9c-0.9-1.4-2.6-2.1-5-2.1c-1.3,0-2.4,0.3-3.3,0.8c-0.9,0.5-1.6,1.2-2.2,2.1c-0.6,0.9-1,1.8-1.2,2.9
		c-0.3,1.1-0.4,2.2-0.4,3.4v13.4h-3.6V52.6c0-2.6-0.5-4.5-1.4-5.9s-2.6-2.1-5-2.1c-0.2,0-0.7,0.1-1.5,0.2c-0.8,0.1-1.6,0.5-2.4,1.2
		c-0.8,0.6-1.6,1.6-2.2,2.9c-0.7,1.3-1,3.1-1,5.4v13h-3.6V47.6z"/>
</g>
</svg>
