<?xml version="1.0" encoding="utf-8"?>
<!-- Generator: Adobe Illustrator 19.0.0, SVG Export Plug-In . SVG Version: 6.00 Build 0)  -->
<svg version="1.1" id="Layer_1" xmlns="http://www.w3.org/2000/svg" xmlns:xlink="http://www.w3.org/1999/xlink" x="0px" y="0px"
	 viewBox="167 110.1 438.2 69.9" style="enable-background:new 167 110.1 438.2 69.9;" xml:space="preserve">
<g>
	<path d="M191.1,161.1c-3.8,5.1-8.4,8.8-13.8,8.8c-5.9,0-9.3-3.6-9.3-9.4c0-14.1,15.6-37.4,30.3-37.4c4.8,0,6.3,2.5,6.3,4.4
		c0,2.5-1.2,4.2-3.7,4.2c-1.5,0-2.5-1.1-2.5-2.7c0-1.5,1.1-2.1,1.1-3c0-1.1-0.6-2.1-1.9-2.1c-6.3,0-11.2,7.2-13.7,11.6
		c-3.4,5.8-10.1,21.2-10.1,27.9c0,2.8,1.2,5.6,4.6,5.6c4.4,0,8.6-3.7,12.1-8.3L191.1,161.1z"/>
	<path d="M302,161.1c-3.8,5.1-8.4,8.8-13.8,8.8c-5.9,0-9.3-3.6-9.3-9.4c0-14.1,15.6-37.4,30.3-37.4c4.8,0,6.3,2.5,6.3,4.4
		c0,2.5-1.2,4.2-3.7,4.2c-1.5,0-2.5-1.1-2.5-2.7c0-1.5,1.1-2.1,1.1-3c0-1.1-0.6-2.1-1.9-2.1c-6.3,0-11.1,7.2-13.7,11.6
		c-3.4,5.8-10.1,21.2-10.1,27.9c0,2.8,1.2,5.6,4.6,5.6c4.4,0,8.6-3.7,12.1-8.3L302,161.1z"/>
	<path d="M214.6,169.9c-8.2,0-11-7.6-11-15.3c0-11.9,11.6-31.5,25.8-31.5c6,0,10.7,4.2,10.7,15.6
		C240.1,150.8,229.1,169.9,214.6,169.9z M229.7,123.7c-9.4,0-21.6,27.9-21.6,38.2c0,4.2,1.5,7.3,5.4,7.3c9.2,0,22-24.8,22-37.8
		C235.4,127.4,234.5,123.7,229.7,123.7z"/>
	<path d="M251.8,131.2c4.6-5,9-8.1,12.4-8.1c2.1,0,2.6,1.7,2.6,4c0,1.9-2.1,8.2-4.6,13.5h0.2c6-10.9,12.3-17.5,18.5-17.5
		c3.3,0,5.7,1.5,5.7,5c0,1.9-1.5,4-3.4,4c-1.5,0-2.8-0.7-3.5-3.5c-0.5-1.9-1.9-2.5-3.1-2.5c-4.4,0-11.1,9.8-15.3,18.3
		c-4.4,9-8.8,19.3-11.1,24.4h-6.5l9.2-20.6c4-9.1,8-18.1,8-19.8c0-0.9-0.5-1.7-1.5-1.7c-1.5,0-4.1,2.1-6.9,5.2L251.8,131.2z"/>
	<path d="M362.8,131.2c4.6-5,9-8.1,12.4-8.1c2.1,0,2.6,1.7,2.6,4c0,1.9-2.1,8.2-4.6,13.5h0.2c6-10.9,12.3-17.5,18.5-17.5
		c3.3,0,5.7,1.5,5.7,5c0,1.9-1.5,4-3.4,4c-1.5,0-2.8-0.7-3.5-3.5c-0.5-1.9-1.9-2.5-3.1-2.5c-4.4,0-11.1,9.8-15.3,18.3
		c-4.4,9-8.8,19.3-11.1,24.4h-6.4l9.2-20.6c4-9.1,8-18.1,8-19.8c0-0.9-0.5-1.7-1.5-1.7c-1.5,0-4.1,2.1-6.9,5.2L362.8,131.2z"/>
	<path d="M325.5,169.9c-8.2,0-11-7.6-11-15.3c0-11.9,11.6-31.5,25.8-31.5c6,0,10.7,4.2,10.7,15.6C351,150.8,340,169.9,325.5,169.9z
		 M340.6,123.7c-9.4,0-21.6,27.9-21.6,38.2c0,4.2,1.5,7.3,5.4,7.3c9.2,0,22-24.8,22-37.8C346.4,127.4,345.4,123.7,340.6,123.7z"/>
	<path d="M429.7,160.3c-5.4,6.3-10.7,9.6-13.7,9.6c-1.5,0-2.6-0.8-2.6-2.3c0-3,1.1-7.3,5-15.9h-0.2c-7.5,11.3-14.5,18.1-22.2,18.1
		c-4.6,0-7.8-2.8-7.8-7.5c0-12.6,21-39.3,35.8-39.3c3.5,0,5.4,1.7,6.4,4.4l1.7-3.2h5.9c-1.7,3.7-10.5,22.2-10.5,22.2
		c-5.4,11.3-7.3,16.3-7.3,18.1c0,1.2,0.5,1.5,1.3,1.5c1.1,0,4.4-2.5,7.8-6.4L429.7,160.3z M423.4,123.9c-10.4,0-28.5,29.4-28.5,38.7
		c0,3.8,1.7,5.6,4.4,5.6c9.9,0,28.8-30.2,28.8-39.4C428,125.3,426.3,123.9,423.4,123.9z"/>
	<path d="M476,161.1c-5.8,6.8-9.5,8.8-13.1,8.8c-1.5,0-2.5-1.2-2.5-2.9c0-2.3,2.1-7.1,7.5-18.5c3.5-7.5,7.6-15.7,7.6-19.1
		c0-0.9-0.3-2.8-2.1-2.8c-5.3,0-15.7,12.1-23.7,27.7c-2.3,4.6-4.6,9.5-6.5,14.5h-6.1c1.3-3.5,5-12,8.6-20.2
		c5.2-11.9,7.4-17.5,7.4-20c0-0.8-0.4-1.7-1.2-1.7c-1.3,0-3.5,1.7-7.6,7.1l-0.6-0.4c5.7-8,9.8-10.4,13.1-10.4c1.7,0,2.6,1.3,2.6,3.6
		c0,3-2.7,10.5-8.2,22.6h0.2c6.7-11.7,17.8-26.2,26.2-26.2c3,0,4.6,1.5,4.6,4.4c0,3.2-3,9.6-8.2,20.4c-4.6,9.6-6.8,14.3-6.8,16.2
		c0,0.7,0.4,1.5,1.5,1.5c1.1,0,3.1-1.1,6.7-5.1L476,161.1z"/>
</g>
<g id="XMLID_93_">
	<path id="XMLID_94_" d="M488.4,166.3c0,0.9-0.3,1.5-0.9,2.2c-0.5,0.6-1.3,1-2.3,1c-1,0-1.7-0.3-2.3-1c-0.5-0.6-0.9-1.4-0.9-2.2
		c0-0.9,0.3-1.5,0.9-2.2c0.5-0.6,1.3-1,2.3-1c1,0,1.7,0.3,2.3,1C488.1,164.8,488.4,165.5,488.4,166.3z"/>
	<path id="XMLID_96_" d="M517.5,148.2c-0.6-1-1.6-1.8-2.8-2.6c-1.2-0.6-2.5-1.1-4.1-1.1c-1.6,0-3,0.2-4.3,0.8
		c-1.3,0.5-2.4,1.3-3.2,2.3c-0.9,1-1.6,2.2-2.1,3.5c-0.4,1.3-0.6,2.8-0.6,4.3s0.2,3,0.6,4.3c0.4,1.3,1.2,2.5,2.1,3.5
		s1.9,1.7,3.2,2.3s2.7,0.8,4.3,0.8c1.5,0,2.9-0.3,4.1-1.1c1.2-0.6,2.2-1.5,2.8-2.6l3.1,2.4c-1.4,1.6-2.9,2.8-4.7,3.6
		c-1.7,0.8-3.5,1.2-5.4,1.2c-2.3,0-4.2-0.3-6.1-1c-1.8-0.8-3.4-1.7-4.5-3c-1.3-1.3-2.3-2.8-2.9-4.5c-0.6-1.7-1-3.7-1-5.7
		s0.3-4,1-5.7c0.6-1.7,1.6-3.4,2.9-4.5c1.3-1.3,2.8-2.3,4.5-3c1.8-0.8,3.8-1.1,6.1-1c1.8,0,3.7,0.4,5.4,1.2c1.7,0.8,3.2,1.9,4.7,3.6
		L517.5,148.2z"/>
	<path id="XMLID_98_" d="M553.4,155.5c0,2.1-0.3,4-1.1,5.7s-1.7,3.2-3,4.5c-1.3,1.3-2.8,2.3-4.5,3c-1.7,0.8-3.7,1.1-5.8,1.1
		c-2.1,0-4-0.3-5.8-1.1c-1.7-0.8-3.4-1.7-4.5-3c-1.3-1.3-2.3-2.8-3-4.5c-0.8-1.7-1.1-3.7-1.1-5.7s0.3-4,1.1-5.7s1.7-3.2,3-4.5
		c1.3-1.3,2.8-2.3,4.5-3c1.7-0.8,3.7-1.1,5.8-1.1s4.1,0.3,5.8,1.1c1.7,0.8,3.4,1.7,4.5,3c1.3,1.3,2.3,2.8,3,4.5
		S553.4,153.4,553.4,155.5z M549.2,155.5c0-1.5-0.2-2.9-0.8-4.2c-0.5-1.3-1.2-2.5-2.1-3.5c-0.9-1-1.9-1.7-3.2-2.3s-2.7-0.9-4.3-0.9
		s-3,0.3-4.3,0.9c-1.3,0.5-2.4,1.3-3.2,2.3s-1.5,2.2-2.1,3.5c-0.5,1.3-0.8,2.7-0.8,4.2c0,1.5,0.2,2.9,0.8,4.2
		c0.4,1.3,1.2,2.5,2.1,3.5c0.9,1,1.9,1.7,3.2,2.3c1.3,0.5,2.7,0.9,4.3,0.9s3-0.3,4.3-0.9s2.4-1.3,3.2-2.3c0.9-1,1.6-2.2,2.1-3.5
		S549.2,157,549.2,155.5z"/>
	<path id="XMLID_101_" d="M560.3,147.8c0-1,0-2.1-0.1-3c-0.1-1-0.1-2.1-0.2-3h4.1v4.1h0.1c1-1.6,2.3-2.8,3.9-3.6
		c1.6-0.9,3.4-1.2,5-1.2c0.8,0,1.5,0.1,2.4,0.2c0.9,0.1,1.6,0.4,2.4,0.9c0.8,0.4,1.5,1,2.2,1.7c0.6,0.8,1.3,1.7,1.7,2.8
		c0.8-1.7,2.1-3.1,3.7-4.1c1.7-1,3.5-1.5,5.3-1.5c3.5,0,6.1,1,7.8,2.8c1.6,1.8,2.5,4.5,2.5,7.9v17.3h-3.9v-15.9
		c0-2.8-0.5-4.9-1.4-6.4c-1-1.5-2.8-2.3-5.4-2.3c-1.4,0-2.6,0.3-3.6,0.9c-1,0.5-1.7,1.3-2.4,2.3c-0.6,1-1.1,1.9-1.3,3.1
		c-0.3,1.2-0.4,2.4-0.4,3.7V169h-3.9v-15.8c0-2.8-0.5-4.9-1.5-6.4s-2.8-2.3-5.4-2.3c-0.2,0-0.8,0.1-1.6,0.2
		c-0.9,0.1-1.7,0.5-2.6,1.3c-0.9,0.6-1.7,1.7-2.4,3.1c-0.8,1.4-1.1,3.4-1.1,5.8v14.1h-3.9v-21.3H560.3z"/>
</g>
</svg>
