<?xml version="1.0" encoding="utf-8"?>
<!-- Generator: Adobe Illustrator 19.0.0, SVG Export Plug-In . SVG Version: 6.00 Build 0)  -->
<svg version="1.1" id="Layer_1" xmlns="http://www.w3.org/2000/svg" xmlns:xlink="http://www.w3.org/1999/xlink" x="0px" y="0px"
	 viewBox="51.9 0 441.1 210.2" style="enable-background:new 51.9 0 441.1 210.2;" xml:space="preserve">
<style type="text/css">
	.st0{fill:none;stroke:#FFFFFF;stroke-width:2;}
	.st1{fill:none;stroke:#FFFFFF;stroke-width:2;stroke-linecap:round;}
	.st2{fill:none;stroke:#FFFFFF;stroke-width:3;stroke-linecap:round;}
	.st3{fill:none;stroke:#FFFFFF;stroke-miterlimit:10;}
	.st4{fill:none;stroke:#FFFFFF;stroke-linecap:round;stroke-dasharray:1,6;}
</style>
<title>Group 3</title>
<desc>Created with Sketch.</desc>
<g id="Publisher">
	<g id="Display_x2B_Search" transform="translate(-118.000000, -630.000000)">
		<g id="Group-2" transform="translate(118.000000, 628.000000)">
			<g id="black" transform="translate(21.785714, 112.446809)">
				<g id="Capa_1">
				</g>
			</g>
			<g id="Group-3">
				<ellipse id="Oval-8" class="st0" cx="86.9" cy="68.9" rx="21.2" ry="20.7"/>
				<path id="Rectangle-47" class="st1" d="M115.3,127.2c0.3,4.5,0.9,13.6,0.9,13.6c0.2,2.8-1.9,5-4.7,5H61c-2.8,0-4.8-2.2-4.7-5
					l1.6-22.7c0.8-11,10.3-20,21.4-20h6.9h7.1c10.3,0,19.3,7.7,21.1,17.7"/>
				<path id="Shape" class="st1" d="M86.9,115.5c0,0,1.1-1,1.7-1.4c0.6-0.3,1.3-0.5,2.1-0.5c0.7,0,1.4,0.2,2.1,0.4
					c0.6,0.3,1.2,0.7,1.7,1.2c0.5,0.5,0.9,1.1,1.1,1.7c0.3,0.6,0.4,1.4,0.4,2.1s-0.1,1.5-0.4,2.1c-0.3,0.6-0.7,1.2-1.1,1.7
					c-0.5,0.5-7.2,6.7-7.9,7c-0.6-0.3-7.4-6.5-7.9-7s-0.9-1.1-1.1-1.7c-0.3-0.6-0.4-1.4-0.4-2.1s0.1-1.5,0.4-2.1
					c0.3-0.6,0.7-1.2,1.1-1.7c0.5-0.5,1.1-0.9,1.7-1.2c0.6-0.3,1.3-0.4,2.1-0.4c0.7,0,1.4,0.2,2.1,0.5c0.6,0.3,1.2,0.8,1.7,1.4
					C86.3,115.7,86.9,115.5,86.9,115.5z"/>
			</g>
			<g id="Group-3_1_" transform="translate(300.000000, 3.000000)">
				<ellipse id="Oval-8_1_" class="st0" cx="18.3" cy="12.9" rx="12.7" ry="12.3"/>
				<path id="Rectangle-47_1_" class="st1" d="M0.5,48.2L1,42.3c0.5-6.6,6.2-11.9,12.8-11.9h4.1h4.2c6.2,0,11.6,4.6,12.7,10.5
					l0.6,6.8 M33.2,58.8H2.8"/>
				<path id="Shape_1_" class="st1" d="M18.4,40.7c0,0,0.6-0.6,1-0.8c0.4-0.2,0.8-0.3,1.2-0.3c0.4,0,0.9,0.1,1.2,0.3
					c0.4,0.2,0.7,0.4,1,0.7c0.3,0.3,0.5,0.6,0.7,1c0.2,0.4,0.3,0.8,0.3,1.3s-0.1,0.9-0.3,1.3c-0.2,0.4-0.4,0.7-0.7,1
					c-0.3,0.3-4.3,4-4.7,4.2c-0.4-0.2-4.4-3.9-4.7-4.2c-0.3-0.3-0.5-0.6-0.7-1c-0.2-0.4-0.2-0.8-0.2-1.3s0.1-0.9,0.2-1.3
					c0.2-0.4,0.4-0.7,0.7-1c0.3-0.3,0.6-0.5,1-0.7c0.4-0.2,0.8-0.3,1.2-0.3c0.4,0,0.9,0.1,1.2,0.3c0.4,0.2,0.7,0.5,1,0.8
					C18,40.8,18.4,40.7,18.4,40.7z"/>
			</g>
			<g id="Group-3_2_" transform="translate(300.000000, 149.000000)">
				<ellipse id="Oval-8_2_" class="st0" cx="18.3" cy="12.9" rx="12.7" ry="12.3"/>
				<path id="Rectangle-47_2_" class="st1" d="M5.3,33.7c2.3-2,5.3-3.3,8.5-3.3h4.1h4.2c3.4,0,6.6,1.4,9,3.7 M34.8,40.9l0.6,6.8
					c0.2,2.7,0.6,8.1,0.6,8.1c0.1,1.6-1.1,3-2.8,3H2.8c-1.7,0-2.9-1.3-2.8-3L1,42.3"/>
				<path id="Shape_2_" class="st1" d="M18.4,40.7c0,0,0.6-0.6,1-0.8c0.4-0.2,0.8-0.3,1.2-0.3c0.4,0,0.9,0.1,1.2,0.3
					c0.4,0.2,0.7,0.4,1,0.7c0.3,0.3,0.5,0.6,0.7,1c0.2,0.4,0.3,0.8,0.3,1.3s-0.1,0.9-0.3,1.3c-0.2,0.4-0.4,0.7-0.7,1
					c-0.3,0.3-4.3,4-4.7,4.2c-0.4-0.2-4.4-3.9-4.7-4.2c-0.3-0.3-0.5-0.6-0.7-1c-0.2-0.4-0.2-0.8-0.2-1.3s0.1-0.9,0.2-1.3
					c0.2-0.4,0.4-0.7,0.7-1c0.3-0.3,0.6-0.5,1-0.7c0.4-0.2,0.8-0.3,1.2-0.3c0.4,0,0.9,0.1,1.2,0.3c0.4,0.2,0.7,0.5,1,0.8
					C18,40.8,18.4,40.7,18.4,40.7z"/>
			</g>
		</g>
		<path id="Line" class="st2" d="M227.9,748.8l57.6-0.3"/>
		<ellipse id="Oval-8_3_" class="st0" cx="309.6" cy="695.6" rx="21.2" ry="20.7"/>
		<path id="Rectangle-47_3_" class="st1" d="M281,741.8c2.2-9.5,10.9-16.8,20.9-16.8h6.9h7.1c3,0,5.8,0.6,8.4,1.8
			c3.8,1.7,7.1,4.5,9.4,7.9 M337.1,742.7L338,754 M338.8,765.5c0.1,1.3,0.1,2.1,0.1,2.1c0.2,2.8-1.9,5-4.7,5h-50.6
			c-2.8,0-4.8-2.2-4.7-5l0.8-11.5"/>
		<path id="Shape_3_" class="st1" d="M309.6,742.3c0,0,1.1-1,1.7-1.4c0.6-0.3,1.3-0.5,2.1-0.5c0.7,0,1.4,0.2,2.1,0.4
			c0.6,0.3,1.2,0.7,1.7,1.2c0.5,0.5,0.9,1.1,1.1,1.7c0.3,0.6,0.4,1.4,0.4,2.1s-0.1,1.5-0.4,2.1c-0.3,0.6-0.7,1.2-1.1,1.7
			c-0.5,0.5-7.2,6.7-7.9,7c-0.6-0.3-7.4-6.5-7.9-7c-0.5-0.5-0.9-1.1-1.1-1.7c-0.3-0.6-0.4-1.4-0.4-2.1s0.1-1.5,0.4-2.1
			c0.3-0.6,0.7-1.2,1.1-1.7c0.5-0.5,1.1-0.9,1.7-1.2c0.6-0.3,1.3-0.4,2.1-0.4s1.4,0.2,2.1,0.5c0.6,0.3,1.2,0.8,1.7,1.4
			C309,742.5,309.6,742.3,309.6,742.3z"/>
		<path id="Shape_4_" class="st1" d="M580.9,740.5c0,0,1.4-1.4,2.2-1.8c0.8-0.4,1.8-0.7,2.7-0.7c1,0,1.9,0.2,2.7,0.6
			c0.8,0.4,1.6,0.9,2.2,1.5c0.6,0.6,1.1,1.4,1.5,2.3c0.4,0.9,0.5,1.8,0.5,2.8c0,1-0.2,1.9-0.5,2.8c-0.4,0.9-0.9,1.6-1.5,2.3
			c-0.6,0.6-9.5,8.9-10.4,9.2c-0.8-0.4-9.7-8.6-10.4-9.2c-0.6-0.6-1.1-1.4-1.5-2.3c-0.4-0.9-0.5-1.8-0.5-2.8c0-1,0.2-1.9,0.5-2.8
			c0.4-0.9,0.9-1.6,1.5-2.3c0.6-0.6,1.4-1.2,2.2-1.5c0.8-0.4,1.8-0.6,2.7-0.6s1.9,0.2,2.7,0.7c0.8,0.4,1.6,1.1,2.2,1.8
			C580.1,740.7,580.9,740.5,580.9,740.5z"/>
		<g id="Oval-10">
			<g>
				<circle id="path-1" class="st3" cx="580.5" cy="748.5" r="30.5"/>
			</g>
			<g>
				<circle id="path-1_1_" class="st4" cx="580.5" cy="748.5" r="30.5"/>
			</g>
		</g>
		<g id="Group" transform="translate(325.000000, 679.000000)">
			<path id="Line_1_" class="st2" d="M0.5,67.5l100-67"/>
			<path id="Line_2_" class="st2" d="M0.5,72.5l100,67"/>
		</g>
		
			<g id="Group_1_" transform="translate(495.500000, 749.000000) scale(-1, 1) translate(-495.500000, -749.000000) translate(445.000000, 679.000000)">
			<path id="Line_3_" class="st2" d="M0.5,67.5l100-67"/>
			<path id="Line_4_" class="st2" d="M0.5,72.5l100,67"/>
		</g>
	</g>
</g>
</svg>
