<?xml version="1.0" encoding="utf-8"?>
<!-- Generator: Adobe Illustrator 19.0.0, SVG Export Plug-In . SVG Version: 6.00 Build 0)  -->
<svg version="1.1" id="Layer_1" xmlns="http://www.w3.org/2000/svg" xmlns:xlink="http://www.w3.org/1999/xlink" x="0px" y="0px"
	 viewBox="-398.4 246 531.1 309" style="enable-background:new -398.4 246 531.1 309;" xml:space="preserve">
<style type="text/css">
	.st0{fill:none;stroke:#FFFFFF;stroke-width:2;}
	.st1{fill:none;stroke:#FFFFFF;}
	.st2{display:none;fill:#FFFFFF;enable-background:new    ;}
	.st3{font-family:'Raleway-Regular';}
	.st4{font-size:10px;}
	.st5{letter-spacing:1;}
	.st6{fill:none;stroke:#FFFFFF;stroke-miterlimit:10;}
	.st7{font-size:20px;}
	.st8{letter-spacing:2;}
	.st9{fill:#FFFFFF;}
	.st10{display:none;fill:none;stroke:#FFFFFF;stroke-miterlimit:10;enable-background:new    ;}
	.st11{fill:none;stroke:#FFFFFF;stroke-width:2;stroke-linecap:round;}
	.st12{fill:none;stroke:#FFFFFF;stroke-width:3;stroke-linecap:round;}
</style>
<title>Search</title>
<desc>Created with Sketch.</desc>
<g id="Page-1">
	<g id="Search" transform="translate(1.000000, 1.000000)">
		<g id="Group-4">
			<g id="Group-8">
				<path id="Rectangle-1" class="st0" d="M-138.8,321H93.7c1.8,0,3.2,1.3,3.2,3v25c0,1.7-1.4,3-3.2,3h-232.6c-1.8,0-3.2-1.3-3.2-3
					v-25C-142.1,322.3-140.7,321-138.8,321z"/>
				
					<g id="Group" transform="translate(458.863289, 91.906066) rotate(-45.000000) translate(-458.863289, -91.906066) translate(456.000000, 87.000000)">
					
						<ellipse id="Oval-1" transform="matrix(-7.605544e-06 -1 1 -7.605544e-06 -346.8994 -526.5574)" class="st1" cx="-436.7" cy="-89.8" rx="5" ry="5.4"/>
					<path id="Rectangle-7" class="st1" d="M-436.6-84.9L-436.6-84.9c0.6,0,1.1,1.9,1.1,4.1l0,0c0,2.2-0.6,4.1-1.1,4.1l0,0
						c-0.6,0-1.1-1.9-1.1-4.1l0,0C-437.7-83.2-437.1-84.9-436.6-84.9z"/>
				</g>
				<path id="Rectangle-1_1_" class="st0" d="M-389.6,387h239c1.9,0,3.3,1.3,3.3,3v25c0,1.7-1.4,3-3.3,3h-239c-1.9,0-3.3-1.3-3.3-3
					v-25C-392.9,388.3-391.5,387-389.6,387z"/>
				
					<g id="Group_1_" transform="translate(208.863289, 157.906066) rotate(-45.000000) translate(-208.863289, -157.906066) translate(206.000000, 153.000000)">
					
						<ellipse id="Oval-1_1_" transform="matrix(-7.605544e-06 -1 1 -7.605544e-06 -346.7632 -517.9282)" class="st1" cx="-432.3" cy="-85.6" rx="5.3" ry="5.7"/>
					<path id="Rectangle-7_1_" class="st1" d="M-432.2-80.3L-432.2-80.3c0.6,0,1.2,2,1.2,4.3l0,0c0,2.4-0.6,4.3-1.2,4.3l0,0
						c-0.6,0-1.2-2-1.2-4.3l0,0C-433.4-78.6-432.8-80.3-432.2-80.3z"/>
				</g>
				<path id="Rectangle-1_2_" class="st0" d="M-125.1,454h247.6c1.9,0,3.4,1.3,3.4,3v25c0,1.7-1.5,3-3.4,3h-247.6
					c-1.9,0-3.4-1.3-3.4-3v-25C-128.5,455.3-127,454-125.1,454z"/>
				
					<g id="Group_2_" transform="translate(489.863289, 224.906066) rotate(-45.000000) translate(-489.863289, -224.906066) translate(487.000000, 220.000000)">
					
						<ellipse id="Oval-1_2_" transform="matrix(-7.605544e-06 -1 1 -7.605544e-06 -346.2293 -529.7051)" class="st1" cx="-438" cy="-91.7" rx="5.4" ry="5.8"/>
					<path id="Rectangle-7_2_" class="st1" d="M-437.8-86.3L-437.8-86.3c0.6,0,1.2,2,1.2,4.4l0,0c0,2.4-0.6,4.4-1.2,4.4l0,0
						c-0.6,0-1.2-2-1.2-4.4l0,0C-439-84.5-438.4-86.3-437.8-86.3z"/>
				</g>
				<path id="Rectangle-1_3_" class="st0" d="M-318.1,521h217c1.7,0,3,1.3,3,3v25c0,1.7-1.3,3-3,3h-217c-1.7,0-3-1.3-3-3v-25
					C-321.1,522.3-319.8,521-318.1,521z"/>
				
					<g id="Group_3_" transform="translate(264.863289, 291.906066) rotate(-45.000000) translate(-264.863289, -291.906066) translate(262.000000, 287.000000)">
					
						<ellipse id="Oval-1_3_" transform="matrix(-7.605544e-06 -1 1 -7.605544e-06 -347.23 -532.0374)" class="st1" cx="-439.6" cy="-92.4" rx="5.4" ry="5.8"/>
					<path id="Rectangle-7_3_" class="st1" d="M-439.5-87L-439.5-87c0.6,0,1.2,2,1.2,4.4l0,0c0,2.4-0.6,4.4-1.2,4.4l0,0
						c-0.6,0-1.2-2-1.2-4.4l0,0C-440.7-85.2-440.1-87-439.5-87z"/>
				</g>
				<path id="Rectangle-1_4_" class="st0" d="M-249.1,245h217c1.7,0,3,1.3,3,3v25c0,1.7-1.3,3-3,3h-217c-1.7,0-3-1.3-3-3v-25
					C-252.1,246.3-250.8,245-249.1,245z"/>
				
					<g id="Group_4_" transform="translate(335.171987, 15.481303) rotate(-45.000000) translate(-335.171987, -15.481303) translate(332.308698, 10.575237)">
					
						<ellipse id="Oval-1_4_" transform="matrix(-7.605545e-06 -1 1 -7.605545e-06 -348.0258 -531.7892)" class="st1" cx="-439.9" cy="-91.9" rx="4.8" ry="5.1"/>
					<path id="Rectangle-7_4_" class="st1" d="M-439.8-87.1L-439.8-87.1c0.5,0,1.1,1.8,1.1,3.9l0,0c0,2.1-0.5,3.9-1.1,3.9l0,0
						c-0.5,0-1.1-1.8-1.1-3.9l0,0C-440.8-85.5-440.3-87.1-439.8-87.1z"/>
				</g>
				<text transform="matrix(1 0 0 1 -231.0625 264)" class="st2 st3 st4 st5">GridSpar</text>
				<text id="GridSpark" transform="matrix(1 0 0 1 -229.0625 269)" class="st6 st3 st7 st8">GridSpark</text>
				<text transform="matrix(1 0 0 1 -176.3932 264)" class="st9 st3 st4 st5"> </text>
				<text transform="matrix(1 0 0 1 -176.3932 264)" class="st6 st3 st4 st5"> </text>
				<text transform="matrix(1 0 0 1 -176.3025 264)" class="st2 st3 st4 st5">k</text>
				<text transform="matrix(1 0 0 1 -176.3025 264)" class="st10 st3 st4 st5">k</text>
				<path id="Line" class="st11" d="M-237.6,253.9V271"/>
				<path id="Line_1_" class="st11" d="M-60.9,251v20"/>
				<path id="Line_2_" class="st11" d="M-73.6,293.5l21,22"/>
				<path id="Line_3_" class="st11" d="M-200.6,293.4l-100.5,85"/>
				<path id="Line_4_" class="st11" d="M-8.1,360l73,84.6"/>
				<path id="Line_5_" class="st11" d="M-69.4,364.5l-120.6,148.8"/>
				<path id="Line_6_" class="st11" d="M-137.2,402.5l106.2,42.1"/>
				<path id="Line_7_" class="st11" d="M-275.6,426.6l21.5,86.7"/>
				<path id="Line_8_" class="st11" d="M8.9,492.4l-98,43.6"/>
				<path id="Line_9_" class="st11" d="M-152.8,342.1l-49.2,36.4"/>
				<text transform="matrix(1 0 0 1 -114.0625 340)" class="st2 st3 st4 st5">Digital Advertising</text>
				<text transform="matrix(1 0 0 1 -134.0625 345)" class="st6 st3 st7 st8">Digital Advertising</text>
				<text transform="matrix(1 0 0 1 -368.0626 406)" class="st2 st3 st4 st5">Search Advertising</text>
				<text transform="matrix(1 0 0 1 -385.9115 410)" class="st6 st3 st7 st8">Search Advertising</text>
				<text transform="matrix(1 0 0 1 -85.0625 473)" class="st2 st3 st4 st5">World Advertising</text>
				<text transform="matrix(1 0 0 1 -122.4458 478)" class="st6 st3 st7 st8">Display Advertising</text>
				<text transform="matrix(1 0 0 1 -310.0626 540)" class="st2 st3 st4 st5">Marketing</text>
				<text transform="matrix(1 0 0 1 -310.0626 543)" class="st6 st3 st7 st8">Marketing</text>
				<path id="Line_10_" class="st12" d="M-251.1,286h221"/>
			</g>
		</g>
		<g id="Group-3" transform="translate(126.000000, 0.000000)">
		</g>
	</g>
</g>
</svg>
