<?xml version="1.0" encoding="utf-8"?>
<!-- Generator: Adobe Illustrator 19.0.0, SVG Export Plug-In . SVG Version: 6.00 Build 0)  -->
<svg version="1.1" id="Layer_1" xmlns="http://www.w3.org/2000/svg" xmlns:xlink="http://www.w3.org/1999/xlink" x="0px" y="0px"
	 viewBox="-461 283.2 357 235.8" style="enable-background:new -461 283.2 357 235.8;" xml:space="preserve">
<style type="text/css">
	.st0{fill:none;stroke:#FFFFFF;stroke-width:2;stroke-linecap:round;}
	.st1{fill:none;stroke:#FFFFFF;stroke-miterlimit:10;}
	.st2{font-family:'Raleway-Bold';}
	.st3{font-size:16px;}
	.st4{letter-spacing:2;}
	.st5{opacity:0.6;fill:none;stroke:#FFFFFF;stroke-width:2;stroke-linecap:round;stroke-dasharray:4,5;enable-background:new    ;}
	.st6{fill:none;stroke:#FFFFFF;stroke-width:2;}
</style>
<g id="Layer_2">
</g>
<g id="Layer_1_1_">
	<title>Group 4</title>
	<desc>Created with Sketch.</desc>
	<g id="Advertiser">
		<g id="Display_x2B_Search" transform="translate(-124.000000, -637.000000)">
			<g id="Group-4" transform="translate(125.000000, 636.000000)">
				<path id="Rectangle-43_3_" class="st0" d="M-403.7,503h-18V300.5l0,0c0-3.6,3.6-6.5,8-6.5h1.9"/>
				<path id="Rectangle-43_6_" class="st0" d="M-403.7,503"/>
				<path id="Rectangle-43_5_" class="st0" d="M-341.8,503"/>
				<path id="Rectangle-43_4_" class="st0" d="M-341.8,404.6"/>
				<path id="Rectangle-43" class="st0" d="M-350.8,294h1c4.4,0,8,2.9,8,6.5v104.1"/>
				<circle id="Oval-12" class="st1" cx="-393.8" cy="295" r="1"/>
				<circle id="Oval-12_1_" class="st1" cx="-370.8" cy="295" r="1"/>
				<path id="Rectangle-44_2_" class="st0" d="M-154.8,490v14h-80V322l0,0c0-4.4,3.6-8,8-8h16.2"/>
				<path id="Rectangle-44_4_" class="st0" d="M-154.8,490"/>
				<path id="Rectangle-44_3_" class="st0" d="M-154.8,365.1"/>
				<path id="Rectangle-44" class="st0" d="M-181.8,314h3.1h15.9c4.4,0,8,3.6,8,8v43.1"/>
				<path id="Line_3_" class="st0" d="M-313,503h10.8"/>
				<path id="Line_5_" class="st0" d="M-313,503"/>
				<path id="Line_4_" class="st0" d="M-404.8,503"/>
				<path id="Line" class="st0" d="M-461.2,503h56.5"/>
				<path id="Line_1_" class="st0" d="M-274.2,504h159"/>
				<text transform="matrix(1 0 0 1 -407.49 299)" class="st1 st2 st3 st4">$ $ $</text>
				<text transform="matrix(1 0 0 1 -201.262 318)" class="st1 st2 st3 st4">$</text>
				<circle id="Oval-14" class="st5" cx="-354.8" cy="469" r="49"/>
				<path id="Triangle-4" class="st0" d="M-344,468.2c0.8,1.3,1.5,2.6,2.3,3.8 M-342.8,490h-22 M-366.8,473.5L-366.8,473.5
					c0.7-1.2,1.5-2.5,2.4-3.9"/>
				<ellipse id="Oval-16" class="st6" cx="-354.2" cy="447.6" rx="4.7" ry="4.6"/>
				<path id="Triangle-1" class="st0" d="M-354.2,456c5.5,0,5.5,10,5.5,10h-11C-359.8,466-359.8,456-354.2,456z"/>
				<ellipse id="Oval-16_1_" class="st6" cx="-374.2" cy="477.6" rx="4.7" ry="4.6"/>
				<path id="Triangle-1_1_" class="st0" d="M-374.2,486c5.5,0,5.5,10,5.5,10h-11C-379.8,496-379.8,486-374.2,486z"/>
				<ellipse id="Oval-16_2_" class="st6" cx="-334.2" cy="477.6" rx="4.7" ry="4.6"/>
				<path id="Triangle-1_2_" class="st0" d="M-334.2,486c5.5,0,5.5,10,5.5,10h-11C-339.8,496-339.8,486-334.2,486z"/>
				<circle id="Oval-14_1_" class="st5" cx="-154.8" cy="426" r="49"/>
				<path id="Triangle-4_1_" class="st0" d="M-143.9,425.2c0.8,1.3,1.5,2.6,2.3,3.8 M-142.8,447h-22 M-166.8,430.5L-166.8,430.5
					c0.7-1.2,1.5-2.5,2.4-3.9"/>
				<ellipse id="Oval-16_3_" class="st6" cx="-154.2" cy="404.6" rx="4.7" ry="4.6"/>
				<path id="Triangle-1_3_" class="st0" d="M-154.2,413c5.5,0,5.5,10,5.5,10h-11C-159.8,423-159.8,413-154.2,413z"/>
				<ellipse id="Oval-16_4_" class="st6" cx="-174.2" cy="434.6" rx="4.7" ry="4.6"/>
				<path id="Triangle-1_4_" class="st0" d="M-174.2,443c5.5,0,5.5,10,5.5,10h-11C-179.8,453-179.8,443-174.2,443z"/>
				<ellipse id="Oval-16_5_" class="st6" cx="-134.2" cy="434.6" rx="4.7" ry="4.6"/>
				<path id="Triangle-1_5_" class="st0" d="M-134.2,443c5.5,0,5.5,10,5.5,10h-11C-139.8,453-139.8,443-134.2,443z"/>
			</g>
		</g>
	</g>
</g>
</svg>
